<svg style="fill: #363636;width: 100px;" xmlns="http://www.w3.org/2000/svg" width="202" height="187" viewBox="0 0 202 187">
                              <path d="M198.63,131H175c0-8.59-7.54-15.55-16.86-15.55s-16.89,7-16.89,15.55H134.5V3.38A3.25,3.25,0,0,0,131.13.27a3.69,3.69,0,0,0-.86.11L2,31.5a3.16,3.16,0,0,0-2.53,3V171.44a3.26,3.26,0,0,0,3.38,3.11H114.25v9.34a3.26,3.26,0,0,0,3.39,3.11h81a3.25,3.25,0,0,0,3.37-3.11V134.08a3.25,3.25,0,0,0-3.37-3.11m-3.38,6.22v18.69h-27v-3.11a3.25,3.25,0,0,0-3.37-3.11H151.38a3.24,3.24,0,0,0-3.38,3.11v3.11H121V137.19ZM161.51,162.1h-6.76v-6.22h6.76Zm-3.37-40.46c5.58,0,10.12,4.18,10.12,9.33H148c0-5.15,4.53-9.33,10.14-9.33M56.88,137.19H77.14v31.13H56.88Zm27,31.14V134.08A3.25,3.25,0,0,0,80.5,131h-27a3.26,3.26,0,0,0-3.37,3.11v34.25H6.25V36.91L127.76,7.43V131H117.64a3.26,3.26,0,0,0-3.39,3.11v34.25Zm111.38,12.44H121V162.1h27v3.11a3.25,3.25,0,0,0,3.38,3.12h13.51a3.25,3.25,0,0,0,3.37-3.12V162.1h27Z"></path>
                              <path d="M60.25,43.84H19.76A3.24,3.24,0,0,0,16.38,47v24.9A3.25,3.25,0,0,0,19.76,75H60.25a3.26,3.26,0,0,0,3.38-3.11V47a3.25,3.25,0,0,0-3.38-3.11M23.13,50.06h13.5V68.74H23.13ZM56.88,68.74H43.38V50.06h13.5Z"></path>
                              <path d="M73.75,75h40.51a3.26,3.26,0,0,0,3.38-3.11V47a3.26,3.26,0,0,0-3.38-3.11H73.75A3.24,3.24,0,0,0,70.38,47v24.9A3.25,3.25,0,0,0,73.75,75m37.13-6.22H97.38V50.06h13.5ZM77.13,50.06H90.62V68.74H77.13Z"></path>
                              <path d="M60.25,87.4H19.76a3.25,3.25,0,0,0-3.38,3.12v24.89a3.24,3.24,0,0,0,3.38,3.12H60.25a3.25,3.25,0,0,0,3.38-3.12V90.52a3.26,3.26,0,0,0-3.38-3.12M23.13,93.63h13.5v18.68H23.13ZM56.88,112.3H43.38V93.62h13.5Z"></path>
                              <path d="M117.64,115.41V90.52a3.26,3.26,0,0,0-3.38-3.12H73.75a3.25,3.25,0,0,0-3.37,3.12v24.89a3.24,3.24,0,0,0,3.37,3.12h40.51a3.26,3.26,0,0,0,3.38-3.12M77.13,93.63H90.62v18.68H77.13Zm33.75,18.67H97.38V93.62h13.5Z"></path>
                           </svg>