<svg style="fill: #363636;width: 100px;" xmlns="http://www.w3.org/2000/svg" width="202" height="187" viewBox="0 0 202 187">
                              <path d="M199.76,181.38h-9v-6.23c0-1.78-1.12-3-2.24-3H182.7V133.43h5.62a2.07,2.07,0,0,0,2-1.78,4.12,4.12,0,0,0-.23-3.26l-6.29-11.24A1.92,1.92,0,0,0,182,116H157.34V59.44h10.55c.89,0,1.79-.88,2.25-2.07.21-1.2,0-2.68-.68-3.26L146,28.36H115.14V20.07h6.29a3,3,0,0,0,2.24-1.77,3.3,3.3,0,0,0-.45-3.26L112.68,1.12a2.24,2.24,0,0,0-1.57-.88H74.3L62.86,15.34a3.31,3.31,0,0,0-.46,3.25,2.3,2.3,0,0,0,2.25,1.79h8.53v64.8h-30l-.14.08L10.78,126.9a3.38,3.38,0,0,0-.44,3.27A2.27,2.27,0,0,0,12.58,132h10.1v49.12H2.48c-1.35,0-2.24,1.48-2.24,3s1.12,3,2.24,3H199.76c1.35,0,2.24-1.49,2.24-3a2.54,2.54,0,0,0-2.24-2.65m-13.69-3.27v3H157.34V171.3H178v3.55c0,1.78,1.12,3,2.24,3h5.84ZM178,165.39H157.34v-32H178Zm2.92-43.21,2.91,5H157.34v-5ZM144.1,34.28l17.29,19.24H115.14V34.28ZM75.64,6.17h34.12l6.06,8H69.58ZM44.22,91.39H72.51V126H18Zm-17,40.86H75c1.35,0,2.24-1.48,2.24-3V20.07h33.45V56.48c0,1.77,1.12,3,2.24,3h40V181.07H27.17Z"></path>
                              <path d="M101.23,28.06H85.74c-1.34,0-2.24,1.48-2.24,3V56.47c0,1.78,1.12,3,2.24,3h15.49c1.35,0,2.24-1.48,2.24-3V31a2.39,2.39,0,0,0-2.24-3M99,53.52H88.21V34H99Z"></path>
                              <path d="M101.23,80.14H85.74c-1.34,0-2.24,1.49-2.24,3v25.45c0,1.78,1.12,3,2.24,3h15.49c1.35,0,2.24-1.48,2.24-3V83.11a2.4,2.4,0,0,0-2.24-3M99,105.61H88.21V86.07H99Z"></path>
                              <path d="M138.94,80.14H123.22c-1.34,0-2.24,1.49-2.24,3v25.45c0,1.78,1.12,3,2.24,3h15.72c1.34,0,2.25-1.48,2.25-3V83.11c0-1.77-1.13-3-2.25-3m-2.47,25.47H125.7V86.07h10.77Z"></path>
                              <path d="M101.23,133.71H85.74c-1.34,0-2.24,1.48-2.24,3v25.46c0,1.78,1.12,3,2.24,3h15.49c1.35,0,2.24-1.48,2.24-3V136.67a2.53,2.53,0,0,0-2.24-3M99,159.16H88.21V139.63H99Z"></path>
                              <path d="M65.55,133.71H50.07c-1.36,0-2.26,1.48-2.26,3v25.46c0,1.78,1.13,3,2.26,3H65.55c1.34,0,2.24-1.48,2.24-3V136.67c0-1.48-1.12-3-2.24-3m-2.47,25.45H52.31V139.63H63.08Z"></path>
                              <path d="M138.94,133.71H123.22c-1.34,0-2.24,1.48-2.24,3v25.46c0,1.78,1.12,3,2.24,3h15.72c1.34,0,2.25-1.48,2.25-3V136.67c0-1.48-1.13-3-2.25-3m-2.47,25.45H125.7V139.63h10.77Z"></path>
                           </svg>