<?xml version="1.0" encoding="utf-8"?>
<!-- Generator: Adobe Illustrator 23.1.0, SVG Export Plug-In . SVG Version: 6.00 Build 0)  -->
<svg version="1.1" id="Layer_1" xmlns="http://www.w3.org/2000/svg" xmlns:xlink="http://www.w3.org/1999/xlink" x="0px" y="0px"
	 viewBox="0 0 830 830" style="enable-background:new 0 0 830 830;" xml:space="preserve">
<style type="text/css">
	.st0{fill:#FFFFFF;}
	.st1{fill:#0090FF;}
	.st2{fill:#309DDE;}
</style>
<title>indeximg</title>
<path class="st0" d="M315.4,694h-77.6c-6.1,0-11-4.9-11-11s4.9-11,11-11h77.6V694z M237.9,677.5c-3,0.1-5.5,2.5-5.6,5.5
	c0.1,3,2.5,5.5,5.6,5.5H310v-11H237.9z"/>
<path class="st0" d="M240.5,781.8h-2.7c-6.1,0-11-4.9-11-11c0,0,0-0.1,0-0.1V683h5.5c0,3,2.5,5.5,5.5,5.4h2.7L240.5,781.8z
	 M232.3,692.5v78.3c0,2,1,3.8,2.7,4.8v-82C234,693.4,233.1,693,232.3,692.5L232.3,692.5z"/>
<path class="st0" d="M315.4,781.8H235v-5.5H310V694H235v-5.5h80.4V781.8z"/>
<path class="st0" d="M270.4,708h32.3v5.5h-32.3V708z M249.3,708h14.3v5.5h-14.3V708z M296.1,719.3h6.6v5.5h-6.6V719.3z M249.3,719.3
	h40v5.5h-40L249.3,719.3z M280.6,731.3h22.1v5.5h-22.1V731.3z M249.3,731.3h24.6v5.5h-24.6L249.3,731.3z M142.3,708.3h30.6v5.5
	h-30.6V708.3z M154.9,698h30.6v5.5h-30.6V698z M130.5,687.7h32.8v5.5h-32.8V687.7z M627.4,739.7h30.6v5.5h-30.6V739.7z M639.9,729.4
	h30.6v5.5h-30.6V729.4z M615.6,719.1h32.8v5.5h-32.8V719.1z M515.3,458.4h32v5.5h-32V458.4z M558.8,448.1h4.3v5.5h-4.3V448.1z
	 M535.2,448.1h18.1v5.5h-18.1V448.1z M526.3,437.8h14.5v5.5h-14.5V437.8z M132.6,235.8h17.9v5.5h-17.9V235.8z M190.7,225.4h5v5.5h-5
	V225.4z M165.5,225.4h19.7v5.5h-19.7V225.4z M175.4,246.2h24.4v5.5h-24.4V246.2z M161.4,246.2h8.5v5.5h-8.5V246.2z M416.5,202h-25.4
	l12.7-25.4L416.5,202z M400,196.5h7.6l-3.8-7.6L400,196.5z M401.2,818.7h-25.4l12.7-25.4L401.2,818.7z M384.8,813.2h7.6l-3.8-7.6
	L384.8,813.2z M598.5,435h-25.4l12.7-25.4L598.5,435z M582,429.5h7.6l-3.8-7.6L582,429.5z M413.4,319.6c-1.6,0-3.1-0.2-4.6-0.7
	l1.7-5.2c1.9,0.6,4,0.6,5.9,0l1.7,5.2C416.6,319.4,415,319.6,413.4,319.6z M401.3,313.5c-1.9-2.6-2.9-5.7-2.9-8.9h5.5
	c0,2,0.7,4,1.9,5.6L401.3,313.5z M425.7,313.4l-4.5-3.2c1.2-1.6,1.8-3.6,1.8-5.6l4.6-0.1h0.9C428.6,307.6,427.6,310.8,425.7,313.4
	L425.7,313.4z M405.6,298.9l-4.5-3.2c1.9-2.6,4.5-4.5,7.5-5.5l1.7,5.2C408.5,296.1,406.8,297.3,405.6,298.9L405.6,298.9z
	 M421.2,298.8c-1.2-1.6-2.9-2.8-4.8-3.4l1.6-5.2c3,1,5.7,2.9,7.6,5.4L421.2,298.8z M81.3,240c-1.7,0-3.4-0.3-5-0.8L78,234
	c2.2,0.7,4.6,0.7,6.8,0l1.7,5.2C84.8,239.8,83.1,240,81.3,240z M68.1,233.3c-2.1-2.8-3.2-6.2-3.2-9.7h5.5c0,2.3,0.8,4.5,2.1,6.4
	L68.1,233.3z M94.7,233.2l-4.4-3.2c1.4-1.9,2.1-4.1,2.1-6.4l4-0.1l1.5,0.1C97.8,227,96.7,230.4,94.7,233.2L94.7,233.2z M72.4,217.1
	l-4.5-3.2c2-2.8,4.9-4.9,8.2-6l1.7,5.2C75.7,213.9,73.8,215.3,72.4,217.1L72.4,217.1z M90.2,217c-1.4-1.9-3.3-3.2-5.5-3.9l1.7-5.2
	c3.3,1,6.2,3.1,8.3,5.9L90.2,217z M454.6,824.1c-1.7,0-3.4-0.3-5-0.8l1.7-5.2c2.2,0.7,4.6,0.7,6.8,0l1.7,5.2
	C458.1,823.9,456.4,824.2,454.6,824.1L454.6,824.1z M441.4,817.4c-2.1-2.8-3.2-6.2-3.2-9.7h5.5c0,2.3,0.8,4.6,2.1,6.4L441.4,817.4z
	 M468,817.3l-4.4-3.2c1.4-1.9,2.1-4.1,2.1-6.5l5.5-0.2v0.2C471.1,811.1,470,814.5,468,817.3L468,817.3z M445.7,801.3l-4.5-3.2
	c2-2.8,4.9-4.9,8.2-6l1.7,5.2C449,798,447.1,799.4,445.7,801.3z M463.5,801.1c-1.4-1.9-3.3-3.2-5.5-3.9l1.6-5.2
	c3.3,1,6.2,3.1,8.3,5.9L463.5,801.1z M202.1,354.8h24.4v5.5h-24.4V354.8z M192.1,342h24.4v5.5h-24.4V342z M209.7,329.3h26.1v5.5
	h-26.1V329.3z M601,201.8h13.2v5.5H601V201.8z M595.6,188.7h13.2v5.5h-13.2V188.7z M609.3,305.7l-9.4-9.4l9.4-9.4l9.4,9.4
	L609.3,305.7z M607.7,296.3l1.6,1.6l1.6-1.6l-1.6-1.6L607.7,296.3z M215.4,425.1l-9.4-9.4l9.4-9.4l9.4,9.4L215.4,425.1z
	 M213.8,415.7l1.6,1.6l1.6-1.6l-1.6-1.6L213.8,415.7z M770,220.6c-5.3,0-9.6-4.3-9.6-9.6c0-5.3,4.3-9.6,9.6-9.6
	c5.3,0,9.6,4.3,9.6,9.6v0C779.6,216.3,775.3,220.6,770,220.6z M770,206.8c-2.3,0-4.1,1.8-4.1,4.1s1.8,4.1,4.1,4.1
	c2.3,0,4.1-1.8,4.1-4.1c0,0,0,0,0,0C774.1,208.7,772.3,206.8,770,206.8z M352.1,29.7c-5.3,0-9.6-4.3-9.6-9.6s4.3-9.6,9.6-9.6
	c5.3,0,9.6,4.3,9.6,9.6c0,0,0,0,0,0C361.7,25.4,357.4,29.7,352.1,29.7z M352.1,16c-2.3,0-4.1,1.8-4.1,4.1s1.8,4.1,4.1,4.1
	c2.3,0,4.1-1.8,4.1-4.1c0,0,0,0,0,0C356.2,17.9,354.4,16,352.1,16L352.1,16z M207.1,697.3c-5.3,0-9.6-4.3-9.6-9.6s4.3-9.6,9.6-9.6
	c5.3,0,9.6,4.3,9.6,9.6c0,0,0,0,0,0C216.7,693,212.4,697.3,207.1,697.3z M207.1,683.6c-2.3,0-4.1,1.8-4.1,4.1c0,2.3,1.8,4.1,4.1,4.1
	c2.3,0,4.1-1.8,4.1-4.1l0,0C211.2,685.4,209.4,683.6,207.1,683.6z M240.3,522.7c-5.3,0-9.6-4.3-9.6-9.6c0-5.3,4.3-9.6,9.6-9.6
	c5.3,0,9.6,4.3,9.6,9.6l0,0C249.9,518.4,245.6,522.7,240.3,522.7z M240.3,509c-2.3,0-4.1,1.8-4.1,4.1c0,2.3,1.8,4.1,4.1,4.1
	c2.3,0,4.1-1.8,4.1-4.1l0,0C244.4,510.8,242.6,509,240.3,509L240.3,509z M35.1,523.5c-3.8,0-6.9-3.1-6.9-6.9c0-3.8,3.1-6.9,6.9-6.9
	c3.8,0,6.9,3.1,6.9,6.9c0,0,0,0,0,0C42,520.4,38.9,523.5,35.1,523.5z M35.1,515.2c-0.8,0-1.4,0.6-1.4,1.4c0,0.8,0.6,1.4,1.4,1.4
	c0.8,0,1.4-0.6,1.4-1.4c0,0,0,0,0,0C36.5,515.9,35.9,515.2,35.1,515.2z M620.5,413.5c-3.8,0-6.9-3.1-6.9-6.9c0-3.8,3.1-6.9,6.9-6.9
	s6.9,3.1,6.9,6.9c0,0,0,0,0,0C627.4,410.4,624.3,413.5,620.5,413.5z M620.5,405.3c-0.8,0-1.4,0.6-1.4,1.4c0,0.8,0.6,1.4,1.4,1.4
	s1.4-0.6,1.4-1.4c0,0,0,0,0,0C621.9,405.9,621.3,405.3,620.5,405.3z M455.9,216.1c-3.8,0-6.9-3.1-6.9-6.9s3.1-6.9,6.9-6.9
	c3.8,0,6.9,3.1,6.9,6.9c0,0,0,0,0,0C462.7,213,459.7,216.1,455.9,216.1z M455.9,207.8c-0.8,0-1.4,0.6-1.4,1.4s0.6,1.4,1.4,1.4
	c0.8,0,1.4-0.6,1.4-1.4c0,0,0,0,0,0C457.3,208.5,456.6,207.8,455.9,207.8z M227.2,268.7c-3.8,0-6.9-3.1-6.9-6.9s3.1-6.9,6.9-6.9
	c3.8,0,6.9,3.1,6.9,6.9c0,0,0,0,0,0C234,265.6,231,268.7,227.2,268.7z M227.2,260.5c-0.8,0-1.4,0.6-1.4,1.4c0,0.8,0.6,1.4,1.4,1.4
	c0.8,0,1.4-0.6,1.4-1.4S227.9,260.5,227.2,260.5C227.2,260.5,227.2,260.5,227.2,260.5z M803.8,549.5c-3.8,0-6.9-3.1-6.9-6.9
	s3.1-6.9,6.9-6.9s6.9,3.1,6.9,6.9c0,0,0,0,0,0C810.7,546.4,807.6,549.5,803.8,549.5z M803.8,541.3c-0.8,0-1.4,0.6-1.4,1.4
	c0,0.8,0.6,1.4,1.4,1.4c0.8,0,1.4-0.6,1.4-1.4c0,0,0,0,0,0C805.2,541.9,804.6,541.3,803.8,541.3z M441.3,92.2h30.6v5.5h-30.6V92.2z
	 M467.6,84.7h30.6v5.5h-30.6V84.7z M415.8,77.1h32.8v5.5h-32.8V77.1z M373.3,686.3h30.6v5.5h-30.6V686.3z M399.6,678h30.6v5.5h-30.6
	V678z M347.7,669.8h32.8v5.5h-32.8V669.8z M757.2,283.1h27.5v5.5h-27.5V283.1z M776.4,272.6h27.5v5.5h-27.5V272.6z M772.3,293.5
	h41.2v5.5h-41.2V293.5z M298.1,481h19.1v5.5h-19.1V481z M322.7,481h8.4v5.5h-8.4V481z M284.4,470.6h22v5.5h-22V470.6z M269.3,491.4
	h7.4v5.5h-7.4V491.4z M282.1,491.4h28.4v5.5h-28.4V491.4z"/>
<path class="st0" d="M191.2,744.7l8.2-8.2l3.9,3.9l-8.2,8.2L191.2,744.7z"/>
<path class="st0" d="M191.2,740.4l3.9-3.9l8.2,8.2l-3.9,3.9L191.2,740.4z"/>
<path class="st0" d="M522.5,32h15.5v5.5h-15.5V32z"/>
<path class="st0" d="M527.6,27h5.5v15.5h-5.5V27z M457.3,667.8h15.5v5.5h-15.5V667.8z"/>
<path class="st0" d="M462.3,662.8h5.5v15.5h-5.5V662.8z M16.4,457.1h15.5v5.5H16.4V457.1z"/>
<path class="st0" d="M21.4,452h5.5v15.5h-5.5V452z M281.4,182.6h13.7v5.5h-13.7V182.6z"/>
<path class="st0" d="M285.6,178.5h5.5v13.7h-5.5V178.5z"/>
<path class="st0" d="M567.6,576.5l11-11l3.9,3.9l-11,11L567.6,576.5z"/>
<path class="st0" d="M567.5,569.4l3.9-3.9l11,11l-3.9,3.9L567.5,569.4z"/>
<path class="st0" d="M351.6,301.2l8.2-8.2l3.9,3.9l-8.2,8.2L351.6,301.2z"/>
<path class="st0" d="M351.6,296.9l3.9-3.9l8.2,8.2l-3.9,3.9L351.6,296.9z"/>
<path class="st0" d="M189.9,89.6l11-11l3.9,3.9l-11,11L189.9,89.6z"/>
<path class="st0" d="M189.9,82.5l3.9-3.9l11,11l-3.9,3.9L189.9,82.5z"/>
<path class="st0" d="M426.8,263.4l11-11l3.9,3.9l-11,11L426.8,263.4z"/>
<path class="st0" d="M426.8,256.3l3.9-3.9l11,11l-3.9,3.9L426.8,256.3z"/>
<path class="st0" d="M191.1,192h-70v-50.1c0-1.7,1.3-3,3-3.1H147c0.8,0,1.6,0.3,2.2,0.9l7.4,7.4l31.5,0.1c1.7,0,3,1.4,3.1,3.1
	L191.1,192z M123.9,189.3h64.5v-39c0-0.2-0.1-0.3-0.3-0.3c0,0,0,0,0,0h-31.3c-0.8,0-1.6-0.3-2.2-0.9l-7.4-7.4l-23-0.1
	c-0.2,0-0.3,0.1-0.3,0.3L123.9,189.3z"/>
<path class="st0" d="M192.5,193.4h-72.8v-51.5c0-2.4,2-4.4,4.4-4.4H147c1.2,0,2.3,0.5,3.1,1.3l7.1,7.1h30.8c2.4,0,4.4,2,4.4,4.4
	L192.5,193.4z M125.2,187.9H187v-36.6h-30.2c-1.2,0-2.3-0.5-3.1-1.3l-7.1-7.1h-21.3L125.2,187.9z"/>
<path class="st0" d="M264.7,69.8l8.2-8.2l3.9,3.9l-8.2,8.2L264.7,69.8z"/>
<path class="st0" d="M379.3,153.6H366v-5.5h13.3c3.4,0,6.1-2.7,6.1-6.1V51.4c0-3.4-2.8-6.1-6.1-6.1H244.2c-3.4,0-6.1,2.7-6.1,6.1
	v90.5c0,3.4,2.7,6.1,6.1,6.1h62.5v5.5h-62.5c-6.4,0-11.6-5.2-11.6-11.6V51.4c0-6.4,5.2-11.6,11.6-11.6h135.1
	c6.4,0,11.7,5.2,11.7,11.6c0,0,0,0,0,0v90.5C391,148.4,385.8,153.6,379.3,153.6C379.3,153.6,379.3,153.6,379.3,153.6z"/>
<path class="st0" d="M382.5,102.5h-11.6V90.9h11.6V102.5z M376.3,97h0.7v-0.6h-0.6L376.3,97z M242.6,87.1h5.5v19.1h-5.5V87.1z"/>
<path class="st0" d="M265.3,87L290,62.2l3.9,3.9l-24.7,24.7L265.3,87z"/>
<path class="st0" d="M366.9,143.4h-5.5V55.5H259.5v82.4h49.9v5.5H254V50h112.9V143.4z M322.6,169.2c-1.5,0-2.8-1.2-2.8-2.8v-14.9
	c-0.1-1.5,1.1-2.8,2.6-2.9c1.5-0.1,2.8,1.1,2.9,2.6c0,0.1,0,0.2,0,0.3v14.9C325.4,168,324.1,169.2,322.6,169.2z"/>
<path class="st0" d="M328.1,195.4h-5.5v-6.2c-5.8-3.7-11.9-10.5-11.9-19v-18.4c0-4.2,3.2-7.8,7.1-7.9c0.7,0,1.4,0.1,2.1,0.2v-15.3
	c-0.2-4,2.9-7.5,6.9-7.7c4-0.2,7.5,2.9,7.7,6.9c0,0.3,0,0.5,0,0.8v9.4c0.6-0.2,1.2-0.2,1.8-0.2c2.3,0,4.4,1.1,5.8,2.9
	c1-0.6,2.2-0.9,3.4-0.9c3,0,5.7,1.9,6.8,4.7c0.8-0.3,1.6-0.4,2.4-0.4c4.1,0.1,7.4,3.6,7.3,7.7v18.2c0,9-2.6,15.4-7.8,19v6.3h-5.5
	v-7.8c0-1,0.5-1.9,1.4-2.4c4.3-2.4,6.4-7.3,6.4-15.1V152c0.2-1-0.5-2-1.5-2.2c-1-0.2-2,0.5-2.2,1.5c0,0.2,0,0.5,0,0.7
	c0.1,1.5-1.1,2.8-2.6,2.9c-1.5,0.1-2.8-1.1-2.9-2.6c0-0.1,0-0.2,0-0.3v-4.3c0.2-1-0.5-2-1.5-2.2s-2,0.5-2.2,1.5c0,0.2,0,0.4,0,0.7
	c0.1,1.5-1.1,2.8-2.6,2.9c-1.5,0.1-2.8-1.1-2.9-2.6c0-0.1,0-0.2,0-0.3v-2.1c0.2-1-0.5-2-1.5-2.2c-1-0.2-2,0.5-2.2,1.5
	c0,0.2,0,0.5,0,0.7c0.1,1.5-1.1,2.8-2.6,2.9c-1.5,0.1-2.8-1.1-2.9-2.6c0-0.1,0-0.2,0-0.3v-16.9c0.2-1-0.5-2-1.5-2.2
	c-1-0.2-2,0.5-2.2,1.5c0,0.2,0,0.4,0,0.7v22.8c-0.1,1.5-1.4,2.7-2.9,2.6c-1.4-0.1-2.5-1.2-2.6-2.6c0-0.6-0.2-1.3-0.7-1.7
	c-0.3-0.3-0.7-0.5-1.2-0.5c-1,0-1.8,1.2-1.8,2.4v18.4c0,6.4,5.3,12.2,10.5,15.1c0.9,0.5,1.4,1.4,1.4,2.4L328.1,195.4z"/>
<path class="st0" d="M331.8,158.4c-1.5,0-2.7-1.2-2.7-2.7c0,0,0,0,0,0v-10c0.1-1.5,1.4-2.7,2.9-2.6c1.4,0.1,2.5,1.2,2.6,2.6v10
	C334.5,157.2,333.3,158.4,331.8,158.4z M350.1,158.4c-1.5,0-2.7-1.2-2.7-2.8V152c0.1-1.5,1.4-2.7,2.9-2.6c1.4,0.1,2.5,1.2,2.6,2.6
	v3.7C352.9,157.2,351.6,158.4,350.1,158.4C350.1,158.4,350.1,158.4,350.1,158.4L350.1,158.4z M341,158.4c-1.5,0-2.8-1.2-2.8-2.8v-8
	c-0.1-1.5,1.1-2.8,2.6-2.9c1.5-0.1,2.8,1.1,2.9,2.6c0,0.1,0,0.2,0,0.3v8C343.7,157.2,342.5,158.4,341,158.4z M560.5,705.4
	c-3.4,0-6.2-2.8-6.2-6.2c0-3.4,2.8-6.2,6.2-6.2c3.4,0,6.2,2.8,6.2,6.2c0,0,0,0,0,0C566.7,702.6,563.9,705.4,560.5,705.4z
	 M560.5,698.6c-0.4,0-0.7,0.3-0.7,0.7c0,0.8,1.4,0.8,1.4,0C561.2,698.9,560.9,698.6,560.5,698.6z M551.3,728.2
	c-3.4,0-6.2-2.8-6.2-6.2c0-3.4,2.8-6.2,6.2-6.2c3.4,0,6.2,2.8,6.2,6.2C557.4,725.4,554.7,728.2,551.3,728.2z M551.3,721.3
	c-0.4,0-0.7,0.3-0.7,0.7c0,0.8,1.3,0.8,1.3,0C551.9,721.6,551.6,721.3,551.3,721.3z M539.6,744.5c-3.4,0-6.2-2.8-6.2-6.2
	c0-3.4,2.8-6.2,6.2-6.2c3.4,0,6.2,2.8,6.2,6.2c0,0,0,0,0,0C545.7,741.7,543,744.5,539.6,744.5z M539.6,737.6c-0.4,0-0.7,0.3-0.7,0.7
	c0,0,0,0,0,0c0,0.8,1.4,0.8,1.4,0C540.3,737.9,540,737.6,539.6,737.6C539.6,737.6,539.6,737.6,539.6,737.6z M528,760
	c-3.4,0-6.2-2.8-6.2-6.2c0-3.4,2.8-6.2,6.2-6.2c3.4,0,6.2,2.8,6.2,6.2c0,0,0,0,0,0C534.2,757.2,531.4,760,528,760z M528,753.2
	c-0.4,0-0.7,0.3-0.7,0.7c0,0.8,1.4,0.8,1.4,0C528.7,753.5,528.4,753.2,528,753.2C528,753.1,528,753.1,528,753.2z M517.5,704.5
	c-3.4,0-6.2-2.8-6.2-6.2s2.8-6.2,6.2-6.2c3.4,0,6.2,2.8,6.2,6.2c0,0,0,0,0,0C523.6,701.7,520.9,704.5,517.5,704.5z M517.5,697.7
	c-0.4,0-0.7,0.3-0.7,0.7c0,0,0,0,0,0c0,0.8,1.4,0.8,1.4,0C518.2,698,517.9,697.7,517.5,697.7z M573.4,763c-3.4,0-6.2-2.8-6.2-6.2
	c0-3.4,2.8-6.2,6.2-6.2s6.2,2.8,6.2,6.2c0,0,0,0,0,0C579.6,760.2,576.8,763,573.4,763z M573.4,756.2c-0.4,0-0.7,0.3-0.7,0.7
	c0,0,0,0,0,0c0,0.8,1.3,0.8,1.3,0C574.1,756.5,573.9,756.1,573.4,756.2C573.5,756.1,573.4,756.1,573.4,756.2L573.4,756.2z
	 M560.2,777.2c-3.4,0-6.2-2.8-6.2-6.2s2.8-6.2,6.2-6.2c3.4,0,6.2,2.8,6.2,6.2c0,0,0,0,0,0C566.4,774.5,563.6,777.2,560.2,777.2z
	 M560.2,770.4c-0.4,0-0.7,0.3-0.7,0.7c0,0,0,0,0,0c0,0.8,1.4,0.8,1.4,0C560.9,770.7,560.6,770.4,560.2,770.4z M532.1,776.7
	c-3.4,0-6.2-2.8-6.2-6.2c0-3.4,2.8-6.2,6.2-6.2c3.4,0,6.2,2.8,6.2,6.2c0,0,0,0,0,0C538.2,773.9,535.5,776.7,532.1,776.7z
	 M532.1,769.8c-0.4,0-0.7,0.3-0.7,0.7c0,0.8,1.4,0.8,1.4,0C532.8,770.1,532.5,769.8,532.1,769.8
	C532.1,769.8,532.1,769.8,532.1,769.8z M502.2,775.8c-3.4,0-6.2-2.8-6.2-6.2c0-3.4,2.8-6.2,6.2-6.2c3.4,0,6.2,2.8,6.2,6.2
	c0,0,0,0,0,0C508.4,773,505.6,775.8,502.2,775.8z M502.2,768.9c-0.4,0-0.7,0.3-0.7,0.7c0,0.8,1.4,0.8,1.4,0
	C502.9,769.2,502.6,768.9,502.2,768.9z M554.5,759.6c-3.4,0-6.2-2.8-6.2-6.2c0-3.4,2.8-6.2,6.2-6.2c3.4,0,6.2,2.8,6.2,6.2
	c0,0,0,0,0,0C560.6,756.8,557.9,759.6,554.5,759.6z M554.5,752.8c-0.4,0-0.7,0.3-0.7,0.7c0,0.8,1.4,0.8,1.4,0
	C555.1,753.1,554.8,752.8,554.5,752.8z M505.8,717.4c-3.4,0-6.2-2.8-6.2-6.2c0-3.4,2.8-6.2,6.2-6.2s6.2,2.8,6.2,6.2c0,0,0,0,0,0
	C512,714.6,509.2,717.4,505.8,717.4z M505.8,710.5c-0.4,0-0.7,0.3-0.7,0.7c0,0.8,1.4,0.8,1.4,0C506.5,710.8,506.2,710.5,505.8,710.5
	C505.8,710.5,505.8,710.5,505.8,710.5z M525.7,731.6c-3.4,0-6.2-2.8-6.2-6.2s2.8-6.2,6.2-6.2c3.4,0,6.2,2.8,6.2,6.2c0,0,0,0,0,0
	C531.9,728.8,529.1,731.6,525.7,731.6z M525.7,724.7c-0.4,0-0.7,0.3-0.7,0.7c0,0,0,0,0,0c0,0.8,1.4,0.8,1.4,0
	C526.4,725,526.1,724.7,525.7,724.7z"/>
<path class="st0" d="M484.7,735.5h51.5v5.5h-51.5L484.7,735.5z M514,701.1h-17.2v-21.6h5.5v16.1H514V701.1z M557.8,685h5.5v10.8
	h-5.5V685z M580,724.7h-25.3v-5.5h19.9v-39.8h5.5V724.7z M557.2,750h-5.5v-15.2h42.5v5.5h-37V750z M505,766.2h-5.5v-6.6h-14.8V754
	H505V766.2z M508.6,730.4h-23.9v-5.5h18.4v-10.3h5.5V730.4z M517.5,789.1H512v-38h12.6v5.5h-7.1V789.1z M546.5,789.1H541v-15.8h-5.5
	v-5.5h11V789.1L546.5,789.1z M528.4,722H523v-13.8h16v-28.7h5.5v34.1h-16V722z M594.3,772.3h-23.6v-12.1h5.5v6.6h18.1V772.3z
	 M557.5,774.5h5.5v14.6h-5.5V774.5z M591.5,732.1H586v-44.4h-3.3v-5.5h8.8V732.1L591.5,732.1z"/>
<path class="st0" d="M492.9,722.2h-5.5v-40h6.7v5.5h-1.3V722.2z M591.5,786.4h-25.8v-5.5H586v-5.8h5.5V786.4L591.5,786.4z
	 M509.3,786.4h-21.9l0.1-24l5.5,0l-0.1,18.5h16.4V786.4z M520.2,780.9h18v5.5h-18V780.9z M549.2,780.9h5.5v5.5h-5.5V780.9z
	 M586,743.1h5.5v21H586V743.1z M505.1,682.2h31.1v5.5h-31.1L505.1,682.2z M566,682.2h5.8v5.5H566V682.2z M547.2,682.2h7.8v5.5h-7.8
	V682.2z M487.4,743.8h5.5v7.6h-5.5V743.8z M681.4,229.8l-4.8-11.8l-6.1-1.3l-9.2,8.8l-13.5-7.8l3-12.4l-4.2-4.7l-12.6,1.7l-6.3-14.3
	l9.7-8.2l-0.7-6.3l-11.2-6l3.3-15.3l12.7-0.9l3.1-5.4l-5.5-11.5l11.6-10.5l10.8,6.7l5.7-2.6l2.3-12.5l15.5-1.6l4.8,11.8l6.2,1.3
	l9.2-8.8l13.5,7.8l-3,12.4l4.2,4.7l12.6-1.7l6.3,14.3l-9.8,8.2l0.7,6.3l11.2,6l-3.3,15.3l-12.7,0.9l-3.1,5.4l5.5,11.5l-11.6,10.4
	l-10.8-6.7l-5.7,2.6l-2.3,12.5L681.4,229.8z M668.8,210.7l11.8,2.5l4.4,10.7l7.3-0.8l2-11.3l11-4.9l9.8,6.1l5.5-4.9l-5-10.4l6-10.5
	l11.5-0.9l1.5-7.2l-10.2-5.4l-1.3-12l8.8-7.4l-3-6.7l-11.3,1.6l-8.1-9l2.7-11.2l-6.4-3.7l-8.3,8l-11.8-2.5l-4.4-10.7l-7.3,0.8
	L672,132l-11,4.9l-9.8-6.1l-5.5,4.9l5,10.4l-6,10.5l-11.5,0.9l-1.5,7.2l10.2,5.5l1.3,12l-8.8,7.4l3,6.7l11.4-1.6l8.1,9l-2.7,11.2
	l6.4,3.7L668.8,210.7z"/>
<path class="st0" d="M683.2,199.3c-15.2,0-27.5-12.3-27.5-27.5s12.3-27.5,27.5-27.5c15.2,0,27.5,12.3,27.5,27.5c0,0,0,0,0,0
	C710.6,187,698.3,199.3,683.2,199.3z M683.2,149.9c-12.2,0-22,9.8-22,22s9.8,22,22,22s22-9.8,22-22l0,0
	C705.2,159.8,695.3,149.9,683.2,149.9z"/>
<path class="st0" d="M652.2,137l7.4-5.4l3.2,4.4l-7.4,5.4L652.2,137z"/>
<path class="st0" d="M637.6,161.9l2.8-8.7l5.2,1.7l-2.8,8.7L637.6,161.9z"/>
<path class="st0" d="M637.6,181.9l5.2-1.7l2.8,8.7l-5.2,1.7L637.6,181.9z"/>
<path class="st0" d="M652.1,206.7l3.2-4.4l7.4,5.4l-3.2,4.4L652.1,206.7z"/>
<path class="st0" d="M678.6,212.8h9.2v5.5h-9.2V212.8z"/>
<path class="st0" d="M703.5,207.7l7.4-5.4l3.2,4.4l-7.4,5.4L703.5,207.7z"/>
<path class="st0" d="M720.7,188.9l2.8-8.7l5.2,1.7l-2.8,8.7L720.7,188.9z"/>
<path class="st0" d="M720.7,154.8l5.2-1.7l2.8,8.7l-5.2,1.7L720.7,154.8z"/>
<path class="st0" d="M703.6,136.1l3.2-4.4l7.4,5.4l-3.2,4.4L703.6,136.1z"/>
<path class="st0" d="M678.6,125.4h9.2v5.5h-9.2V125.4z M687.8,683.4h27.5v5.5h-27.5V683.4z M687.8,697.2h27.5v5.5h-27.5V697.2z"/>
<path class="st0" d="M691.9,679.3h5.5v27.5h-5.5V679.3z M705.7,679.3h5.5v27.5h-5.5V679.3z"/>
<path class="st0" d="M277.5,628.2l3.9-3.9l19.4,19.4l-3.9,3.9L277.5,628.2z"/>
<path class="st0" d="M267.7,637.9l3.9-3.9l19.4,19.4l-3.9,3.9L267.7,637.9z"/>
<path class="st0" d="M267.7,643.7l19.4-19.4l3.9,3.9l-19.4,19.4L267.7,643.7z"/>
<path class="st0" d="M277.5,653.4l19.4-19.4l3.9,3.9l-19.4,19.4L277.5,653.4z"/>
<path class="st0" d="M352.1,815.7c-4.7,0-8.5-3.8-8.5-8.5v-50c-10.6-4.7-15.4-17.1-10.7-27.7c1-2.4,2.5-4.5,4.4-6.4l0.8-0.8h9.1
	v11.9l2.3,4.4h5.3l2.3-4.4v-12h9.1l0.8,0.8c8.2,8.2,8.2,21.5,0,29.7c-1.8,1.8-4,3.3-6.4,4.4v50C360.6,811.9,356.8,815.7,352.1,815.7
	C352.1,815.7,352.1,815.7,352.1,815.7L352.1,815.7z M340.4,727.8c-5.3,6.1-5,15.4,0.8,21.1c1.7,1.7,3.8,3,6.1,3.8l1.9,0.6v53.9
	c0,1.7,1.3,3,3,3s3-1.3,3-3v-53.9l1.9-0.6c8.1-2.7,12.5-11.5,9.8-19.6c-0.6-1.9-1.7-3.7-3-5.3h-1.3v7.8l-4.5,8.6h-12l-4.5-8.6v-7.8
	H340.4z M233.6,185.9h-16.5v-16.5h16.5V185.9z M222.6,180.4h5.5v-5.5h-5.5V180.4z M478.8,325.2h-16.5v-16.5h16.5V325.2z
	 M467.8,319.8h5.5v-5.5h-5.5V319.8z M544.2,502.1h-16.5v-16.5h16.5V502.1z M533.2,496.7h5.5v-5.5h-5.5V496.7z M547.7,296.1h-36.2
	c-9.2,0-16.7-7.5-16.7-16.7v-36.2c0-9.2,7.5-16.7,16.7-16.7h36.2c9.2,0,16.6,7.5,16.7,16.7v36.2
	C564.4,288.6,556.9,296.1,547.7,296.1z M511.5,232.1c-6.2,0-11.2,5-11.2,11.2v36.2c0,6.2,5,11.2,11.2,11.2h36.2
	c6.2,0,11.2-5,11.2-11.2v-36.3c0-6.2-5-11.2-11.2-11.2L511.5,232.1z"/>
<path class="st0" d="M550.4,255.7h-5.5v-9.6h-9.7v-5.5h15.2L550.4,255.7L550.4,255.7z M524,282.1h-15.1V267h5.5v9.6h9.7V282.1z
	 M502.9,202.3h5.5v17.3h-5.5V202.3z M550.9,202.3h5.5v17.3h-5.5V202.3z M534.9,202.3h5.5v17.3h-5.5V202.3z M518.9,202.3h5.5v17.3
	h-5.5V202.3z M502.9,303.2h5.5v17.3h-5.5V303.2z M550.9,303.2h5.5v17.3h-5.5V303.2z M534.9,303.2h5.5v17.3h-5.5V303.2z M518.9,303.2
	h5.5v17.3h-5.5V303.2z M571.4,234.6h17.3v5.5h-17.3V234.6z M571.4,282.6h17.3v5.5h-17.3V282.6z M571.4,266.6h17.3v5.5h-17.3V266.6z
	 M571.4,250.6h17.3v5.5h-17.3V250.6z M470.6,234.6h17.3v5.5h-17.3V234.6z M470.6,282.6h17.3v5.5h-17.3V282.6z M470.6,266.6h17.3v5.5
	h-17.3V266.6z M470.6,250.6h17.3v5.5h-17.3V250.6z M53.2,451h5.5v24.7h-5.5V451z M109.9,451h5.5v24.7h-5.5V451z M121.1,451h5.5v24.7
	h-5.5V451z M211.8,451h5.5v24.7h-5.5V451z M223,451h5.5v24.7H223V451z M155.1,451h5.5v24.7h-5.5V451z M72.9,475.7
	c-4.7,0-8.5-3.8-8.5-8.5v-7.7c0.3-4.7,4.4-8.2,9.1-7.9c4.2,0.3,7.6,3.7,7.9,7.9v7.7C81.4,471.9,77.6,475.7,72.9,475.7z M72.9,456.5
	c-1.7,0-3,1.3-3,3v7.7c0,1.7,1.3,3,3,3s3-1.3,3-3v-7.7C75.9,457.9,74.6,456.5,72.9,456.5z M95.7,475.7c-4.7,0-8.5-3.8-8.5-8.5v-7.7
	c0.3-4.7,4.4-8.2,9.1-7.9c4.2,0.3,7.6,3.7,7.9,7.9v7.7C104.2,471.9,100.4,475.7,95.7,475.7z M95.7,456.5c-1.7,0-3,1.3-3,3v7.7
	c0,1.7,1.3,3,3,3s3-1.3,3-3v-7.7C98.7,457.9,97.3,456.5,95.7,456.5z M140.9,475.7c-4.7,0-8.5-3.8-8.5-8.5v-7.7
	c0.3-4.7,4.4-8.2,9.1-7.9c4.2,0.3,7.6,3.7,7.9,7.9v7.7C149.3,471.9,145.5,475.7,140.9,475.7z M140.9,456.5c-1.7,0-3,1.3-3,3v7.7
	c0,1.7,1.3,3,3,3s3-1.3,3-3v-7.7C143.9,457.9,142.5,456.5,140.9,456.5z M197.6,475.7c-4.7,0-8.5-3.8-8.5-8.5v-7.7
	c0.2-4.7,4.2-8.3,8.9-8.1c4.4,0.2,7.9,3.7,8.1,8.1v7.7C206.1,471.9,202.3,475.7,197.6,475.7z M197.6,456.5c-1.7,0-3,1.3-3,3v7.7
	c0,1.7,1.3,3,3,3s3-1.3,3-3v-7.7C200.6,457.9,199.2,456.5,197.6,456.5z M174.8,475.7c-4.7,0-8.5-3.8-8.5-8.5v-7.7
	c0.2-4.7,4.2-8.3,8.9-8.1c4.4,0.2,7.9,3.7,8.1,8.1v7.7C183.3,471.9,179.5,475.7,174.8,475.7z M174.8,456.5c-1.7,0-3,1.3-3,3v7.7
	c0,1.7,1.3,3,3,3s3-1.3,3-3v-7.7C177.8,457.9,176.5,456.5,174.8,456.5z M635.1,256h5.5v24.7h-5.5V256z M691.8,256h5.5v24.7h-5.5V256
	z M703,256h5.5v24.7H703V256z M654.8,280.7c-4.7,0-8.5-3.8-8.5-8.5v-7.7c-0.2-4.7,3.4-8.7,8.1-8.9c4.7-0.2,8.7,3.4,8.9,8.1
	c0,0.3,0,0.6,0,0.8v7.7C663.3,276.8,659.5,280.7,654.8,280.7z M654.8,261.5c-1.7,0-3,1.3-3,3v7.7c0,1.7,1.3,3,3,3s3-1.3,3-3v-7.7
	C657.8,262.8,656.5,261.5,654.8,261.5z M677.6,280.7c-4.7,0-8.5-3.8-8.5-8.5v-7.7c0.3-4.7,4.4-8.2,9.1-7.9c4.2,0.3,7.6,3.7,7.9,7.9
	v7.7C686,276.8,682.3,280.6,677.6,280.7z M677.6,261.5c-1.7,0-3,1.3-3,3v7.7c0,1.7,1.3,3,3,3s3-1.3,3-3v-7.7
	C680.6,262.8,679.2,261.5,677.6,261.5z M722.8,280.7c-4.7,0-8.5-3.8-8.5-8.5v-7.7c0.2-4.7,4.2-8.3,8.9-8.1c4.4,0.2,7.9,3.7,8.1,8.1
	v7.7C731.2,276.8,727.4,280.7,722.8,280.7z M722.8,261.5c-1.7,0-3,1.3-3,3v7.7c0,1.7,1.3,3,3,3s3-1.3,3-3v-7.7
	C725.8,262.8,724.4,261.5,722.8,261.5z M424.8,136.3h5.5V161h-5.5V136.3z M481.5,136.3h5.5V161h-5.5V136.3z M492.8,136.3h5.5V161
	h-5.5V136.3z M583.4,136.3h5.5V161h-5.5V136.3z M526.7,136.3h5.5V161h-5.5V136.3z M444.6,161c-4.7,0-8.5-3.8-8.5-8.5v-7.7
	c-0.3-4.7,3.2-8.8,7.9-9.1c4.7-0.3,8.8,3.2,9.1,7.9c0,0.4,0,0.8,0,1.2v7.7C453,157.2,449.3,161,444.6,161z M444.6,141.8
	c-1.7,0-3,1.3-3,3v7.7c0,1.7,1.3,3,3,3s3-1.3,3-3v-7.7C447.6,143.1,446.2,141.8,444.6,141.8L444.6,141.8z M467.3,161
	c-4.7,0-8.5-3.8-8.5-8.5v-7.7c-0.3-4.7,3.2-8.8,7.9-9.1c4.7-0.3,8.8,3.2,9.1,7.9c0,0.4,0,0.8,0,1.2v7.7
	C475.8,157.2,472,161,467.3,161z M467.3,141.8c-1.7,0-3,1.3-3,3v7.7c0,1.7,1.3,3,3,3s3-1.3,3-3v-7.7
	C470.3,143.1,469,141.8,467.3,141.8L467.3,141.8z M512.5,161c-4.7,0-8.5-3.8-8.5-8.5v-7.7c-0.3-4.7,3.2-8.8,7.9-9.1
	c4.7-0.3,8.8,3.2,9.1,7.9c0,0.4,0,0.8,0,1.2v7.7C521,157.2,517.2,161,512.5,161z M512.5,141.8c-1.7,0-3,1.3-3,3v7.7c0,1.7,1.3,3,3,3
	s3-1.3,3-3v-7.7C515.5,143.1,514.1,141.8,512.5,141.8L512.5,141.8z M569.2,161c-4.7,0-8.5-3.8-8.5-8.5v-7.7
	c-0.3-4.7,3.2-8.8,7.9-9.1c4.7-0.3,8.8,3.2,9.1,7.9c0,0.4,0,0.8,0,1.2v7.7C577.7,157.2,573.9,161,569.2,161z M569.2,141.8
	c-1.7,0-3,1.3-3,3v7.7c0,1.7,1.3,3,3,3s3-1.3,3-3v-7.7C572.2,143.1,570.9,141.8,569.2,141.8L569.2,141.8z M546.5,161
	c-4.7,0-8.5-3.8-8.5-8.5v-7.7c-0.3-4.7,3.2-8.8,7.9-9.1c4.7-0.3,8.8,3.2,9.1,7.9c0,0.4,0,0.8,0,1.2v7.7
	C554.9,157.2,551.1,161,546.5,161z M546.5,141.8c-1.7,0-3,1.3-3,3v7.7c0,1.7,1.3,3,3,3s3-1.3,3-3v-7.7
	C549.5,143.1,548.1,141.8,546.5,141.8L546.5,141.8z M692.7,502.2h5.5v22h-5.5V502.2z M702.3,502.2h5.5v22h-5.5V502.2z M780,502.2
	h5.5v22H780V502.2z M731.4,502.2h5.5v22h-5.5V502.2z M719.6,524.2c-4.2,0-7.7-3.5-7.7-7.7v-6.6c0-4.2,3.4-7.7,7.7-7.7
	s7.7,3.4,7.7,7.7v6.6C727.3,520.8,723.9,524.2,719.6,524.2z M719.6,507.7c-1.2,0-2.2,1-2.2,2.2v6.6c0,1.2,1,2.2,2.2,2.2
	s2.2-1,2.2-2.2v-6.6C721.8,508.7,720.8,507.7,719.6,507.7z M768.2,524.2c-4.2,0-7.7-3.5-7.7-7.7v-6.6c0-4.2,3.4-7.7,7.7-7.7
	s7.7,3.4,7.7,7.7v6.6C775.9,520.8,772.5,524.2,768.2,524.2z M768.2,507.7c-1.2,0-2.2,1-2.2,2.2v6.6c0,1.2,1,2.2,2.2,2.2
	s2.2-1,2.2-2.2v-6.6C770.4,508.7,769.5,507.7,768.2,507.7C768.2,507.7,768.2,507.7,768.2,507.7z M748.7,524.2
	c-4.2,0-7.7-3.5-7.7-7.7v-6.6c0-4.2,3.4-7.7,7.7-7.7s7.7,3.4,7.7,7.7v6.6C756.4,520.8,753,524.2,748.7,524.2z M748.7,507.7
	c-1.2,0-2.2,1-2.2,2.2v6.6c0,1.2,1,2.2,2.2,2.2s2.2-1,2.2-2.2v-6.6C750.9,508.7,750,507.7,748.7,507.7z M531.9,624.3v-5.5
	c2.3,0,4.2-1.9,4.2-4.2v-83.3c0-2.3-1.9-4.2-4.2-4.2H314.4c-2.3,0-4.2,1.9-4.2,4.2v83.3c0,2.3,1.9,4.2,4.2,4.2v5.5
	c-5.3,0-9.7-4.3-9.7-9.7v-83.3c0-5.3,4.3-9.7,9.7-9.7h217.4c5.3,0,9.7,4.3,9.7,9.7v83.3C541.5,619.9,537.2,624.3,531.9,624.3
	L531.9,624.3z"/>
<path class="st0" d="M376.3,618.8H470v5.5h-93.6L376.3,618.8z M319.2,534.9h208v5.5h-208V534.9z M384.6,591.4h14v5.5h-14V591.4z
	 M427.5,591.4h14v5.5h-14V591.4z M406.2,591.4h14v5.5h-14V591.4z M449,591.4h14v5.5h-14V591.4z M368.9,577.3h8.5v5.5h-8.5V577.3z
	 M470.3,577.3h8.5v5.5h-8.5V577.3z M384.6,577.3h14v5.5h-14V577.3z M427.5,577.3h14v5.5h-14V577.3z M406.2,577.3h14v5.5h-14V577.3z
	 M449,577.3h14v5.5h-14V577.3z M384.6,605.5h14v5.5h-14V605.5z M406.2,605.5h35.3v5.5h-35.3V605.5z M449,605.5h14v5.5h-14V605.5z
	 M341.8,563.3h14v5.5h-14V563.3z M320.5,563.3h14v5.5h-14V563.3z M384.6,563.3h14v5.5h-14V563.3z M363.4,563.3h14v5.5h-14V563.3z
	 M427.5,563.3h14v5.5h-14V563.3z M406.2,563.3h14v5.5h-14V563.3z M470.3,563.3h14v5.5h-14V563.3z M449,563.3h14v5.5h-14V563.3z
	 M513.1,563.3h14v5.5h-14V563.3z M491.9,563.3h14v5.5h-14V563.3z M341.8,549.2h14v5.5h-14V549.2z M320.5,549.2h14v5.5h-14V549.2z
	 M384.6,549.2h14v5.5h-14V549.2z M363.4,549.2h14v5.5h-14V549.2z M427.5,549.2h14v5.5h-14V549.2z M406.2,549.2h14v5.5h-14V549.2z
	 M470.3,549.2h14v5.5h-14V549.2z M449,549.2h14v5.5h-14V549.2z M513.1,549.2h14v5.5h-14V549.2z M491.9,549.2h14v5.5h-14V549.2z
	 M336,265.3h30.6v5.5H336V265.3z M348.5,252.3h30.6v5.5h-30.6V252.3z M324.2,239.4h32.8v5.5h-32.8V239.4z M350.5,224.1h23.7v5.5
	h-23.7V224.1z M382.5,224.1h8.8v5.5h-8.8V224.1z M778.2,636.1c2.2,3.1,1.8,5.4,1.2,6.4s-1.9,2.8-5.8,2.8H723c-3.9,0-5.4-1.8-5.8-2.8
	s-1-3.3,1.2-6.4l7.5-9.8c-19.3-12.3-24.9-38-12.5-57.2s38-24.9,57.2-12.5c11.9,7.6,19.1,20.8,19.1,34.9c0,14.1-7.1,27.2-18.9,34.9
	L778.2,636.1z M748.2,629.9c21.2,0,38.5-17.2,38.5-38.4c0-21.2-17.2-38.5-38.4-38.5c-21.2,0-38.5,17.2-38.5,38.4c0,0,0,0,0,0
	C709.8,612.7,727,629.9,748.2,629.9z M775.8,637.9l-7.6-10.1c-6.1,3.4-13,5.1-20,5.1c-6.9,0-13.7-1.7-19.8-4.9l-7.4,10
	c-1,1.3-1.5,2.5-1,3.3s1.5,1.2,3.3,1.2h50.4c1.6,0,2.8-0.5,3.3-1.2S776.8,639.3,775.8,637.9L775.8,637.9z M748.2,608.7
	c-9.5,0-17.2-7.8-17.1-17.3c0-9.5,7.8-17.2,17.3-17.1c9.4,0,17.1,7.7,17.1,17.1C765.5,600.9,757.8,608.7,748.2,608.7
	C748.2,608.7,748.2,608.7,748.2,608.7L748.2,608.7z M748.2,605.7c7.9,0,14.2-6.4,14.2-14.3s-6.4-14.2-14.3-14.2
	c-7.8,0-14.1,6.4-14.2,14.2C733.9,599.3,740.2,605.7,748.2,605.7C748.2,605.7,748.2,605.7,748.2,605.7L748.2,605.7z M748.2,599
	c-4.1,0.4-7.8-2.7-8.2-6.8s2.7-7.8,6.8-8.2c0.4,0,0.9,0,1.3,0c4.2,0,7.6,3.3,7.6,7.4c0,0,0,0,0,0C755.8,595.6,752.4,599,748.2,599
	L748.2,599z M748.2,596c2.5,0,4.5-2.1,4.5-4.6c0-2.5-2.1-4.5-4.6-4.5c-2.5,0-4.5,2-4.5,4.5C743.6,593.9,745.7,596,748.2,596
	L748.2,596z M762.5,570.8c0-2.1,1.8-3.8,3.9-3.8c2.1,0.1,3.8,1.8,3.9,3.9c0,2.1-1.7,3.9-3.8,3.9c0,0,0,0,0,0
	c-2.1,0.1-3.8-1.6-3.9-3.6C762.5,571,762.5,570.9,762.5,570.8L762.5,570.8z M765.5,570.8c-0.1,0.4,0.2,0.8,0.7,0.9
	c0.1,0,0.2,0,0.2,0c0.5,0,0.9-0.3,0.9-0.8c0,0,0,0,0-0.1c0-0.5-0.4-0.8-0.9-0.9c-0.5,0-0.9,0.3-0.9,0.8
	C765.5,570.7,765.5,570.8,765.5,570.8L765.5,570.8z"/>
<path class="st0" d="M773.5,646.9H723c-5.2,0-6.9-2.9-7.2-3.8s-1.6-3.8,1.3-7.9l6.5-8.5c-19.5-13.6-24.3-40.4-10.7-59.9
	c13.6-19.5,40.4-24.3,59.9-10.7c11.6,8,18.4,21.2,18.4,35.3c0,14-6.8,27.1-18.3,35.2l6.5,8.6c3,4.1,1.9,7,1.3,8.1
	C780.4,644,778.8,646.9,773.5,646.9z M728.9,629.9l-6.7,8.9c-0.4,0.5-0.8,1.1-0.9,1.7c0.6,0.2,1.2,0.3,1.9,0.3h50.4
	c0.7,0.1,1.4-0.1,1.9-0.4c-0.1,0.1-0.2-0.5-0.9-1.5l-6.8-9.1c-6,3.1-12.7,4.7-19.5,4.6C741.5,634.4,734.9,632.9,728.9,629.9
	L728.9,629.9z M748.2,554.5c-20.4,0-36.9,16.5-36.9,36.9c0,20.4,16.5,36.9,36.9,36.9c20.4,0,36.9-16.5,36.9-36.9
	C785.1,571.1,768.6,554.5,748.2,554.5L748.2,554.5z M728,626l0.5,0.2L728,626L728,626z M748.2,610.3c-10.4,0-18.7-8.5-18.7-18.8
	c0-10.4,8.5-18.7,18.8-18.7c10.3,0,18.7,8.4,18.7,18.7C767,601.8,758.6,610.2,748.2,610.3L748.2,610.3z M748.2,578.8
	c-7,0.1-12.6,5.8-12.5,12.8c0.1,7,5.8,12.6,12.8,12.5c7-0.1,12.6-5.8,12.5-12.8C761,584.4,755.2,578.8,748.2,578.8
	C748.2,578.8,748.2,578.8,748.2,578.8L748.2,578.8z M748.2,600.6c-5,0-9.1-4.1-9-9.2c0-5,4.1-9.1,9.2-9c5,0,9,4.1,9,9
	C757.3,596.5,753.2,600.6,748.2,600.6L748.2,600.6z M748.2,588.5c-1.6,0-3,1.3-3.1,2.9c0,1.7,1.4,3.1,3.1,3.1s3.1-1.4,3.1-3.1
	c0,0,0,0,0,0C751.2,589.8,749.8,588.5,748.2,588.5L748.2,588.5z M766.3,576.3c-2.9,0.1-5.4-2.3-5.4-5.2c0-0.1,0-0.2,0-0.2
	c0-3,2.4-5.4,5.4-5.4c3,0,5.4,2.5,5.4,5.4c0,3-2.4,5.4-5.3,5.4C766.4,576.3,766.4,576.3,766.3,576.3L766.3,576.3z M765.7,570.9
	c0,0.3,0.2,0.6,0.6,0.7c0,0,0.1,0,0.1,0c0.4,0,0.6-0.3,0.7-0.7c-0.1-0.3-0.3-0.6-0.7-0.7C766,570.2,765.7,570.5,765.7,570.9
	L765.7,570.9z M704.5,417.6v32.7c0,0.1-0.1,0.1-0.1,0.2v0.4c0,0.3-0.1,0.7-0.2,1c-0.5,1.7-1.9,3.1-3.6,3.6c-0.6,0.1-1,0.2-1.7,0.3
	h-42c-0.3,0-0.6-0.1-0.9-0.2c-1.8-0.4-3.2-1.5-4-3.1c-0.4-0.8-0.6-1.7-0.6-2.7v-32c0-0.5,0-1-0.1-1.4c-0.1-0.5-0.2-1-0.3-1.4
	c-0.1-0.3-0.1-0.5-0.2-0.8l-0.8-4.2c0-0.3-0.1-0.5-0.1-0.8c-0.1-0.5-0.2-1-0.3-1.4s-0.2-0.9-0.3-1.3s-0.2-0.9-0.3-1.3
	c-0.1-0.2-0.1-0.5-0.2-0.7c0.1-0.1,0.3-0.1,0.5-0.1c0.2,0,0.4-0.1,0.6-0.1l6.8-1.1c0.8-0.1,1.6-0.3,2.5-0.4l29.9-5
	c0.9-0.2,1.6-0.3,2.5-0.5c0.4,0,0.8-0.1,1.1-0.2c0.5-0.1,1-0.1,1.4-0.2l2.5-0.5c0.7-0.1,1.2-0.3,1.8-0.4c1-0.2,2.1-0.5,3.1-0.7h0.2
	c0.1,0.5,0.2,1,0.3,1.5s0.2,1,0.3,1.5l0.1,0.6c0.2,0.9,0.4,1.8,0.5,2.7c0.1,0.5,0.2,1,0.3,1.5s0.2,1,0.3,1.5h0.1
	c0.2,1.2,0.4,2.4,0.7,3.6c0,0.3,0.1,0.5,0,0.7c0,0.4-0.2,0.8-0.6,0.9c-0.2,0.1-0.4,0.2-0.7,0.2l-1.7,0.3l-1.7,0.3l-4,0.7
	c-0.8,0.2-1.5,0.3-2.3,0.5l-2,0.3c-0.6,0.1-1.2,0.2-1.9,0.3c-0.6,0.2-1.3,0.3-1.9,0.4c-1.3,0.2-2.8,0.5-4.1,0.7
	c-0.8,0.2-1.8,0.3-2.8,0.5c-0.7,0.1-1.4,0.2-2.2,0.3l-7.8,1c-0.7,0.1-1.4,0.2-2.2,0.3c-0.4,0-0.8,0.1-1.1,0.1s-1,0.1-1.3,0.2h-0.2
	l-0.5,0.2l0.5,0.2H703c0.2,0,0.5,0.1,0.7,0.2c0.3,0.1,0.5,0.3,0.6,0.6c0.1,0.1,0.2,0.2,0.2,0.4C704.4,417.4,704.4,417.5,704.5,417.6
	C704.4,417.6,704.5,417.6,704.5,417.6L704.5,417.6z M653.3,415.4L653.3,415.4l0.2-0.2c2.2-3.7,4.3-7.1,6.4-10.6l0.2-0.3l-0.4,0.1
	h-0.1l-6.3,1c-0.3,0.1-0.6,0.1-0.9,0.2s-0.6,0.1-0.9,0.1l-0.3,0.1v0.2c0.5,2,0.9,4.1,1.2,6.1l0.6,3c0,0,0,0.1,0.1,0.1L653.3,415.4z
	 M702.6,422.4v-4.6h-48.9c0,0-0.1,0-0.1,0.1h-0.2v32c0,0.4,0.1,0.9,0.2,1.3c0.4,1.1,1.2,2,2.3,2.4c0.5,0.2,1.1,0.3,1.7,0.4h1.6
	c1.4,0,2.9,0,4.5-0.1h9.9c2.2,0,4.4,0,6.7,0.1h18c0.6,0,1.2-0.1,1.7-0.3c0.9-0.3,1.7-0.9,2.2-1.7c0.2-0.5,0.3-0.9,0.4-1.4
	c0-0.2,0.1-0.5,0.1-0.9L702.6,422.4L702.6,422.4z M661,406.9c-0.6,1-1.1,2-1.7,2.9s-1,1.6-1.5,2.5s-1,1.6-1.4,2.4l-0.1,0.1v0.2
	l-0.1,0.1l0.2,0.1h0.2l1.9-0.3c1.2-0.1,2.3-0.3,3.4-0.5c0.3,0,0.3-0.1,0.4-0.2l0.1-0.1c0.8-1.3,1.6-2.7,2.4-4s1.6-2.7,2.5-4l0.4-0.8
	c0.4-0.6,0.9-1.3,1.2-2c0,0,0-0.1,0.1-0.1c0,0,0,0,0,0v-0.1l0.2-0.3h-0.6l-1.3,0.3c-0.5,0-1,0.1-1.4,0.2c-0.8,0.1-1.7,0.3-2.7,0.5
	c-0.1,0-0.2,0.1-0.3,0.2v0.1C662.3,405.1,661.7,406,661,406.9L661,406.9z M669.3,407c-1,1.4-1.8,2.9-2.7,4.3c-0.5,0.8-1,1.5-1.3,2.3
	h-0.1v0.5l1.3-0.2l4.6-0.6v-0.1h0.1c1-1.8,2.1-3.5,3.1-5.2c1.3-2.1,2.6-4.2,3.9-6.4v-0.3l-0.4,0.1c-1.9,0.3-3.8,0.7-5.7,1H672
	l-0.1,0.3C671,404.1,670.1,405.6,669.3,407L669.3,407z M678.5,405.4c-1,1.4-1.8,3-2.7,4.4c-0.4,0.6-0.8,1.1-1,1.6
	c-0.2,0.3-0.4,0.7-0.6,1c0,0.1-0.1,0.1-0.1,0.2l-0.2,0.3h0.3c0.6-0.1,1.1-0.1,1.6-0.2s0.8-0.1,1.2-0.2s0.6-0.1,0.8-0.1l1.9-0.3h0.1
	V412c1.5-2.5,3-5,4.6-7.4c0.8-1.5,1.8-3,2.7-4.4c0-0.1,0-0.1,0.1-0.2v-0.2H687c-0.2,0-0.3,0.1-0.4,0.1h-0.4l-4.6,0.9h-0.1
	c-0.2,0-0.3,0-0.4,0.2v0.1C680.2,402.4,679.4,404,678.5,405.4L678.5,405.4z M686.8,405.1c-1.1,1.8-2.2,3.6-3.2,5.3
	c-0.1,0.1-0.2,0.3-0.3,0.4c-0.1,0.2-0.2,0.3-0.3,0.5s0,0.2,0,0.3h0.2c0.9-0.2,1.9-0.3,2.8-0.5s2-0.3,3-0.5l7.3-12.1l0.1-0.3H696
	c-0.3,0.1-0.5,0.1-0.8,0.2c-0.4,0-0.8,0.1-1.2,0.2l-1.2,0.2c-0.2,0-0.5,0.1-0.8,0.1c-0.5,0.1-1,0.2-1.5,0.3c-0.2,0-0.4,0.1-0.5,0.3
	C689,401.4,687.8,403.2,686.8,405.1L686.8,405.1z M692.1,409.8l-0.1,0.3l2.8-0.5c2.4-0.4,4.8-0.9,7.2-1.2c0.1,0,0.1-0.1,0.2-0.1
	v-0.4c-0.2-0.6-0.3-1.3-0.4-1.9l-0.5-2.4c-0.1-0.4-0.2-0.9-0.3-1.3s-0.2-1-0.3-1.6c-0.2-1-0.4-2-0.6-3l-0.1-0.3l-0.2,0.1
	c-0.1,0-0.2,0-0.3,0.1h-0.2l-0.1,0.1C699.4,397.7,692.2,409.6,692.1,409.8L692.1,409.8z"/>
<path class="st0" d="M698.7,457h-41.6c-0.5,0-1.1-0.1-1.5-0.3c-2-0.4-3.7-1.8-4.6-3.7c-0.5-1-0.7-2.1-0.7-3.2v-32.1
	c0-0.4,0-0.8-0.1-1.2l-0.3-1.4c0-0.1-0.1-0.3-0.1-0.4l-0.1-0.4l-0.8-4.2l1.1-0.6l-1.1,0.2c0-0.2-0.1-0.4-0.1-0.6l-0.2-1
	c-0.1-0.6-0.2-1.1-0.3-1.6l-0.3-1.2c0-0.1-0.1-0.3-0.1-0.5l-0.5-1l1-0.6c0.3-0.2,0.7-0.2,1-0.2c0.2-0.1,0.4-0.1,0.6-0.1l6.6-1.1
	c0.4,0,0.7-0.1,1.1-0.2s1-0.2,1.4-0.2l29.8-5l1.2-0.2c0.4-0.1,0.8-0.1,1.2-0.2c0.4,0,0.7-0.1,1.1-0.2c0.3-0.1,0.6-0.1,0.9-0.1
	c0.2,0,0.4,0,0.6-0.1l2.5-0.5c0.4-0.1,0.7-0.1,1-0.2s0.6-0.1,0.8-0.2l1.2-0.3c0.6-0.1,1.3-0.3,1.9-0.4h1.3l1,4.6
	c0.2,0.9,0.4,1.8,0.5,2.7l0.3,1.4c0,0.2,0.1,0.4,0.1,0.6l0.3,1c0.2,1.2,0.4,2.3,0.7,3.5v0.4c0,0.3,0,0.5,0,0.8
	c-0.1,0.8-0.5,1.5-1.2,1.8c-0.4,0.2-0.8,0.3-1.2,0.3l-7.2,1.2c-0.3,0.1-0.7,0.1-1.1,0.2s-0.7,0.1-1.1,0.2l-2.1,0.3l-1.6,0.2l-0.3,0
	c-0.6,0.2-1.3,0.3-1.9,0.4c-0.6,0.1-1.3,0.2-2,0.3s-1.4,0.2-2.1,0.3c-0.4,0.1-0.9,0.2-1.4,0.3c-0.4,0-0.7,0.1-1.1,0.2h22
	c0.4,0,0.8,0.1,1.2,0.3c0.5,0.2,0.9,0.5,1.1,1c0.2,0.2,0.3,0.5,0.3,0.7l-0.1,33.8c0,0.4-0.1,0.8-0.2,1.3c-0.6,2.1-2.3,3.8-4.4,4.5
	l-0.6,0.1L699,457L698.7,457z M666.7,452.9h6.8c2.2,0,4.4,0,6.7,0.1h17.9c0.5,0,0.9-0.1,1.3-0.2c0.7-0.2,1.2-0.6,1.5-1.2
	c0.1-0.3,0.2-0.7,0.2-1c0-0.1,0-0.2,0-0.3c0-0.1,0-0.3,0-0.4V419l-46.9,0.1V450c0,0.3,0,0.6,0.1,0.9c0.2,0.8,0.8,1.5,1.6,1.8
	c0.4,0.2,0.8,0.3,1.3,0.3h1.6c1.4,0,2.9,0,4.4-0.1L666.7,452.9z M652.6,416.8h0.4l-0.4-0.3L652.6,416.8z M654.6,415.6l-0.1,0.2
	l-0.4,0.4l-0.5,0.5h10.5l-1.8-0.7l1.8-0.7v-1.6l-0.7,1.1l-0.2,0.3c-0.3,0.4-0.8,0.6-1.3,0.6c-1.1,0.2-2.2,0.4-3.3,0.5l-2.5,0.3
	L654.6,415.6z M661.4,413.5L661.4,413.5l0.9,0.8L662,414l-0.7-0.4L661.4,413.5z M662,407.6c-0.6,1-1.1,2-1.7,2.9
	c-0.2,0.4-0.5,0.9-0.8,1.3s-0.5,0.8-0.7,1.1l-0.5,0.8c1.1-0.1,2.2-0.3,3.2-0.4c0.3-0.6,0.7-1.2,1.1-1.8s0.8-1.3,1.2-2
	s0.9-1.4,1.3-2.1s0.8-1.3,1.2-2l0.3-0.6c0.1-0.2,0.2-0.3,0.3-0.5c-0.3,0-0.6,0.1-0.8,0.1c-0.7,0.1-1.5,0.2-2.3,0.4
	C663.2,405.8,662.6,406.7,662,407.6L662,407.6z M677.5,412.4l0.1,0.7h0.3L677.5,412.4z M672.9,403.4c-0.6,1-1.2,2-1.8,3l-0.8,1.3
	c-0.9,1.4-1.8,2.8-2.6,4.2l-0.5,0.7l3.3-0.5c0.9-1.6,1.9-3.1,2.8-4.7s1.9-3,2.8-4.5l-0.9,0.2L672.9,403.4z M681.1,412.3v0.3l0.7-0.1
	h0.1l-0.1-0.7c0-0.2,0-0.4,0-0.6L681.1,412.3z M652.7,406.8c0.3,1.4,0.6,3,0.9,4.4l0.2,1.2c1.3-2.2,2.6-4.4,3.9-6.5l-4.2,0.7
	c-0.1,0-0.3,0.1-0.4,0.1L652.7,406.8z M682.1,401.8c-0.7,1-1.3,2-1.9,3.1l-0.7,1.1c-0.7,1.1-1.4,2.2-2,3.3l-0.6,1l-0.7,1h0.2
	c0.2,0,0.3,0,0.5-0.1h0.3c0.3,0,0.6-0.1,0.8-0.1l1.2-0.2l4.3-7c0.5-0.9,1-1.8,1.6-2.7L682.1,401.8z M691,409.6l-0.8,1.4l0.4-0.1
	L691,409.6z M691,400.3l-0.8,1.4c-0.8,1.3-1.6,2.6-2.3,4v0.1c-0.7,1.1-1.4,2.2-2,3.3l-0.6,1l0.7-0.1c0.5-0.1,1-0.2,1.5-0.3l0.9-0.1
	l5.9-9.8l-1.1,0.2c-0.3,0.1-0.7,0.1-1,0.1L691,400.3z M699.5,399.8l-5.3,8.7l0.4-0.1c1.2-0.2,2.4-0.4,3.5-0.6l2.7-0.5
	c-0.1-0.4-0.2-0.8-0.2-1.2l-0.5-2.3c-0.1-0.3-0.2-0.8-0.3-1.3L699.5,399.8z M679.4,400.5v1.1c0.2-0.4,0.5-0.7,0.7-1.1l0.1-0.2
	L679.4,400.5z M691.2,400l-0.1,0.1L691.2,400z M688.4,399v1l0.7-1.1L688.4,399z M697.7,397.3l-0.1,1.3l0.9-1.4
	c-0.1,0-0.3,0.1-0.4,0.1L697.7,397.3z M682.9,557.1h-16.5v-16.5h16.5V557.1z M671.9,551.6h5.5v-5.5h-5.5V551.6z M645.6,659l6.1,1
	v6.1l-6.1,1c-0.3,1.2-0.8,2.4-1.4,3.4l3.6,5l-4.3,4.3l-5.1-3.5c-1.1,0.6-2.2,1.1-3.4,1.4l-1,6h-6.1l-1-6c-1.2-0.3-2.4-0.8-3.4-1.4
	l-5,3.5l-4.3-4.3l3.6-5c-0.6-1.1-1.1-2.2-1.4-3.4l-6-1V660l6-1c0.3-1.2,0.8-2.4,1.4-3.5l-3.5-5l4.3-4.3l5,3.6
	c1.1-0.6,2.2-1.1,3.4-1.4l1-6h6.1l1,6.1c1.2,0.3,2.4,0.8,3.4,1.4l5-3.6l4.3,4.3l-3.6,5.1C644.8,656.7,645.3,657.8,645.6,659
	L645.6,659z M650.5,661l-5.8-1l-0.1-0.4c-0.3-1.3-0.9-2.6-1.6-3.8l-0.2-0.3l3.4-4.9l-2.8-2.8l-4.8,3.4l-0.3-0.2
	c-1.2-0.7-2.5-1.2-3.8-1.6l-0.4-0.1l-1-5.8h-4l-1,5.8l-0.4,0.1c-1.4,0.3-2.6,0.9-3.8,1.6l-0.3,0.2l-4.8-3.4l-2.8,2.8l3.4,4.9
	l-0.2,0.3c-0.7,1.2-1.3,2.5-1.6,3.8l-0.1,0.4l-5.8,1v4l5.8,1l0.1,0.4c0.3,1.3,0.9,2.6,1.6,3.8l0.3,0.3l-3.4,4.8l2.9,2.8l4.8-3.4
	l0.3,0.3c1.2,0.7,2.5,1.2,3.8,1.5l0.4,0.1l1,5.8h4l1-5.8l0.4-0.1c1.3-0.4,2.6-0.9,3.8-1.6l0.3-0.2l4.9,3.4l2.8-2.8l-3.5-4.8l0.2-0.4
	c0.7-1.2,1.2-2.4,1.6-3.8l0.1-0.4l5.8-1L650.5,661z M638.3,663.1c0,4-3.2,7.3-7.3,7.3c-4,0-7.3-3.2-7.3-7.3c0-4,3.2-7.3,7.3-7.3
	c0,0,0,0,0,0C635,655.8,638.3,659,638.3,663.1C638.3,663.1,638.3,663.1,638.3,663.1L638.3,663.1z M637,663c0-3.4-2.7-6.1-6.1-6
	c-3.4,0-6.1,2.7-6,6.1c0,3.4,2.7,6.1,6.1,6c0,0,0,0,0,0C634.3,669.1,637,666.4,637,663L637,663z"/>
<path class="st0" d="M635,685h-8.1l-1-6.3c-0.8-0.3-1.6-0.6-2.3-1l-5.3,3.7l-5.7-5.7l3.7-5.2c-0.4-0.8-0.7-1.5-1-2.3l-6.3-1.1V659
	l6.3-1c0.3-0.8,0.6-1.6,1-2.4l-3.7-5.2l5.7-5.7l5.2,3.7c0.7-0.4,1.5-0.7,2.3-1l1-6.3h8.1l1.1,6.3c0.8,0.3,1.6,0.6,2.3,1l5.2-3.8
	l5.7,5.7l-3.7,5.3c0.4,0.7,0.7,1.5,1,2.3l6.3,1v8.1l-6.3,1.1c-0.3,0.8-0.6,1.6-1,2.3l3.8,5.2l-5.7,5.7l-5.3-3.7
	c-0.8,0.4-1.5,0.7-2.3,1L635,685z M630,681.4h2l1-5.7l1.2-0.2c1.2-0.3,2.3-0.8,3.4-1.5l1-0.6l4.7,3.3l1.4-1.4l-3.3-4.6l0.5-1
	c0.7-1.1,1.2-2.3,1.5-3.5l0.4-1.1l5.5-1V662l-5.5-0.9l-0.3-1c-0.3-1.2-0.8-2.4-1.5-3.5l-0.6-1l3.3-4.8l-1.4-1.4l-4.6,3.3l-1-0.6
	c-1.1-0.6-2.3-1.1-3.5-1.4l-1.1-0.4l-1-5.5h-2l-1,5.7l-1.2,0.2c-1.2,0.3-2.4,0.8-3.4,1.5l-1,0.6l-4.6-3.3l-1.5,1.4l3.2,4.7l-0.6,1
	c-0.7,1.1-1.2,2.3-1.5,3.5l-0.2,1.1l-5.7,1v2l5.5,1l0.3,1.1c0.3,1.3,0.8,2.5,1.5,3.6l0.7,0.9l-3.4,4.7l1.5,1.5l4.7-3.4l1,0.8
	c1.1,0.6,2.2,1,3.4,1.3l1.1,0.2L630,681.4z M631,671.6c-4.7,0-8.5-3.8-8.5-8.4s3.8-8.5,8.4-8.5s8.5,3.8,8.5,8.4c0,0,0,0.1,0,0.1
	C639.4,667.8,635.7,671.6,631,671.6L631,671.6z M631,658.2c-2.7,0-4.9,2.2-4.9,4.9s2.2,4.9,4.9,4.9s4.9-2.2,4.9-4.9c0,0,0,0,0-0.1
	C635.9,660.4,633.7,658.2,631,658.2L631,658.2z M619.4,614.8l7.5,1.2v7.5l-7.5,1.3c-0.4,1.5-1,2.9-1.8,4.2l4.5,6.1l-5.3,5.3
	l-6.2-4.3c-1.3,0.7-2.8,1.3-4.2,1.8l-1.3,7.4h-7.5l-1.2-7.4c-1.5-0.4-2.9-1-4.2-1.8l-6.2,4.3l-5.3-5.3l4.4-6.1
	c-0.8-1.3-1.4-2.7-1.8-4.2l-7.4-1.3V616l7.4-1.2c0.4-1.5,1-3,1.8-4.3l-4.3-6.1l5.3-5.3l6.1,4.4c1.3-0.8,2.8-1.4,4.2-1.8l1.2-7.4h7.5
	l1.3,7.5c1.5,0.4,2.9,1,4.2,1.8l6.1-4.5l5.3,5.3l-4.4,6.2C618.5,611.9,619.1,613.3,619.4,614.8L619.4,614.8z M625.4,617.3l-7.2-1.2
	l-0.2-0.5c-0.4-1.6-1-3.2-1.9-4.6l-0.2-0.4l4.2-6l-3.4-3.4l-5.9,4.2l-0.4-0.2c-1.5-0.9-3.1-1.5-4.7-1.9l-0.5-0.2l-1.3-7.2H599
	l-1.2,7.2l-0.5,0.1c-1.7,0.4-3.2,1.1-4.7,2l-0.4,0.2l-5.9-4.2l-3.5,3.4l4.1,6l-0.2,0.4c-0.9,1.5-1.6,3-2,4.7l-0.1,0.5l-7.2,1.2v4.9
	l7.1,1.3l0.2,0.5c0.4,1.6,1.1,3.2,1.9,4.7l0.3,0.4l-4.2,5.9l3.5,3.5l5.9-4.2l0.4,0.3c1.5,0.9,3.1,1.5,4.7,1.9l0.5,0.1l1.2,7.2h5
	l1.3-7.2l0.5-0.1c1.7-0.4,3.2-1.1,4.7-2l0.4-0.2l6,4.2l3.5-3.4l-4.3-5.9l0.2-0.5c0.9-1.4,1.5-3,1.9-4.6l0.2-0.5l7.2-1.3L625.4,617.3
	z M610.4,619.8c0,5-4,9-9,9c-5,0-9-4-9-9s4-9,9-9c0,0,0,0,0.1,0c4.9,0,8.9,4,8.9,8.9C610.4,619.8,610.4,619.8,610.4,619.8
	L610.4,619.8z M608.9,619.8c0-4.1-3.4-7.4-7.5-7.4s-7.4,3.4-7.4,7.5c0,4.1,3.4,7.4,7.5,7.4C605.6,627.2,608.9,623.9,608.9,619.8
	C608.9,619.8,608.9,619.8,608.9,619.8L608.9,619.8z"/>
<path class="st0" d="M606.1,646.4h-9.5l-1.2-7.7c-1.1-0.3-2.1-0.8-3.1-1.3l-6.4,4.5l-6.7-6.7l4.5-6.3c-0.5-1-1-2.1-1.3-3.1l-7.7-1.3
	V615l7.7-1.2c0.3-1.1,0.8-2.2,1.3-3.2l-4.5-6.3l6.7-6.7l6.3,4.5c1-0.5,2-1,3.1-1.3l1.2-7.7h9.5l1.3,7.8c1.1,0.3,2.1,0.8,3.1,1.3
	l6.3-4.6l6.7,6.7l-4.5,6.4c0.5,1,1,2,1.3,3.1l7.7,1.2v9.5l-7.7,1.3c-0.3,1.1-0.8,2.1-1.3,3.1l4.6,6.3l-6.7,6.7l-6.4-4.5
	c-1,0.5-2,0.9-3.1,1.3L606.1,646.4z M599.9,642.6h3l1.2-7l1.3-0.2c1.5-0.4,3-1,4.3-1.8l1-0.6l5.8,4l2.1-2l-4.1-5.7l0.6-1.1
	c0.8-1.4,1.4-2.8,1.8-4.4l0.4-1.2l6.9-1.2v-3l-6.9-1.2L617,616c-0.4-1.5-1-3-1.8-4.4l-0.6-1l4-5.9l-2-2l-5.7,4.1l-1-0.6
	c-1.4-0.8-2.9-1.4-4.4-1.8l-1.2-0.4l-1.3-6.9H600l-1.2,7l-1.3,0.2c-1.5,0.4-3,1-4.3,1.8l-1.1,0.6l-5.7-4.1l-2.1,2.1l4,5.8l-0.6,1
	c-0.8,1.4-1.5,2.8-1.9,4.4l-0.2,1.2l-7,1.2v3l6.8,1.2l0.4,1.2c0.4,1.6,1,3.1,1.8,4.5l0.8,0.9l-4.2,5.8l2.1,2.1l5.8-4.2l1.1,0.9
	c1.3,0.7,2.8,1.3,4.2,1.7l1.2,0.2L599.9,642.6z M601.5,629.9c-5.6,0-10.2-4.5-10.2-10.1c0-5.6,4.5-10.2,10.1-10.2
	s10.2,4.5,10.2,10.1c0,0,0,0,0,0.1C611.6,625.4,607.1,629.9,601.5,629.9z M601.5,613.5c-3.5,0-6.3,2.8-6.3,6.3
	c0,3.5,2.8,6.3,6.3,6.3c3.5,0,6.3-2.8,6.3-6.3c0,0,0,0,0-0.1C607.7,616.3,604.9,613.5,601.5,613.5z M455.4,767.4h-5.5v-21l0.6-0.8
	c8.5-9.8,7.5-24.6-2.3-33.1s-24.6-7.5-33.1,2.3c-0.8,0.9-1.4,1.8-2.1,2.8l-4.6-3c8.7-13.4,26.7-17.2,40.1-8.5
	c13.4,8.7,17.2,26.7,8.5,40.1c-0.5,0.8-1.1,1.5-1.6,2.3L455.4,767.4z M186.2,662.7c-0.6-6.4-6.5-11.7-14.8-13.2
	c-0.6-0.1-1.2,0.1-1.6,0.5l-3,3l-3-3c-0.4-0.4-1-0.6-1.6-0.5c-8.2,1.5-14.2,6.8-14.8,13.2c-0.1,0.8,0.4,1.6,1.3,1.9
	c11.8,3.3,24.3,3.3,36.1,0C185.7,664.3,186.2,663.5,186.2,662.7z M166.9,663.5c-5.2,0.1-10.4-0.6-15.5-1.9c1.1-3.9,5.2-7.2,10.6-8.4
	l3.6,3.5c0.3,0.3,0.8,0.5,1.3,0.5c0.5,0,0.9-0.2,1.3-0.5l3.6-3.5c5.4,1.3,9.5,4.5,10.6,8.4C177.2,662.9,172.1,663.5,166.9,663.5
	L166.9,663.5z"/>
<path class="st0" d="M166.9,667.6c-6.2,0.1-12.3-0.8-18.2-2.5c-1.1-0.3-1.8-1.4-1.7-2.5c0.6-6.7,6.7-12.2,15.2-13.7
	c0.8-0.1,1.5,0.1,2.1,0.7l2.6,2.5l2.6-2.5c0.5-0.5,1.3-0.8,2.1-0.7c8.5,1.5,14.6,7.1,15.3,13.8c0.1,1.1-0.6,2.2-1.7,2.5
	C179.2,666.9,173,667.7,166.9,667.6z M162.6,650h-0.2c-8,1.4-13.7,6.5-14.3,12.7c-0.1,0.6,0.3,1.1,0.8,1.3c11.7,3.3,24,3.3,35.7,0
	c0.5-0.2,0.9-0.7,0.9-1.3c-0.6-6.2-6.3-11.3-14.3-12.7c-0.4-0.1-0.8,0.1-1.1,0.3l-3.4,3.4l-3.4-3.4C163.2,650.1,162.9,650,162.6,650
	z M166.9,664.1c-5.3,0.1-10.5-0.6-15.6-1.9l-0.6-0.2l0.2-0.6c1.2-4.1,5.4-7.5,11-8.8l0.3-0.1l3.8,3.8c0.5,0.5,1.2,0.5,1.7,0l3.8-3.8
	l0.3,0.1c5.6,1.3,9.9,4.7,11,8.8l0.2,0.6l-0.6,0.2C177.3,663.4,172.1,664.1,166.9,664.1L166.9,664.1z M152.1,661.2
	c9.7,2.3,19.7,2.3,29.4,0c-1.3-3.4-4.9-6.2-9.7-7.4l-3.3,3.3c-0.9,0.9-2.4,0.9-3.3,0l-3.3-3.3C157.1,655,153.4,657.8,152.1,661.2
	L152.1,661.2z M156.6,636c0,5.7,4.6,10.3,10.3,10.3s10.3-4.6,10.3-10.3c0-5.7-4.6-10.3-10.3-10.3l0,0
	C161.2,625.7,156.6,630.3,156.6,636z M166.9,642.7c-3.7,0-6.7-3-6.7-6.7c0-3.7,3-6.7,6.7-6.7s6.7,3,6.7,6.7c0,0,0,0,0,0
	C173.6,639.7,170.6,642.7,166.9,642.7L166.9,642.7z"/>
<path class="st0" d="M166.9,646.9c-6,0-10.9-4.9-10.9-10.9c0-6,4.9-10.9,10.9-10.9c6,0,10.9,4.9,10.9,10.9
	C177.8,642,172.9,646.9,166.9,646.9C166.9,646.9,166.9,646.9,166.9,646.9z M166.9,626.3c-5.4,0-9.7,4.4-9.7,9.7
	c0,5.4,4.4,9.7,9.7,9.7s9.7-4.4,9.7-9.7l0,0C176.6,630.7,172.2,626.3,166.9,626.3z M166.9,643.3c-4,0-7.3-3.3-7.3-7.3
	c0-4,3.3-7.3,7.3-7.3c4,0,7.3,3.3,7.3,7.3c0,0,0,0,0,0C174.2,640,170.9,643.3,166.9,643.3L166.9,643.3z M166.9,629.9
	c-3.4,0-6.1,2.8-6.1,6.1c0,3.4,2.8,6.1,6.1,6.1c3.4,0,6.1-2.8,6.1-6.1v0C173,632.6,170.2,629.9,166.9,629.9L166.9,629.9z M219.4,642
	c-0.5-6-6.1-11-13.8-12.4c-0.5-0.1-1.1,0.1-1.5,0.5l-2.8,2.8l-2.8-2.8c-0.4-0.4-0.9-0.5-1.5-0.5c-7.7,1.4-13.2,6.4-13.8,12.4
	c-0.1,0.8,0.4,1.5,1.2,1.8c11,3.1,22.7,3.1,33.7,0C219,643.5,219.5,642.8,219.4,642L219.4,642z M201.4,642.8
	c-4.9,0.1-9.8-0.5-14.5-1.8c1.1-3.6,4.9-6.7,9.9-7.9l3.3,3.3c0.3,0.3,0.7,0.5,1.2,0.5c0.4,0,0.9-0.2,1.2-0.5l3.3-3.3
	c5,1.2,8.9,4.2,9.9,7.9C211.1,642.2,206.2,642.8,201.4,642.8L201.4,642.8z"/>
<path class="st0" d="M201.4,646.7c-5.8,0.1-11.5-0.7-17-2.3c-1-0.3-1.7-1.3-1.6-2.4c0.6-6.3,6.3-11.4,14.3-12.9
	c0.7-0.1,1.5,0.1,2,0.6l2.4,2.4l2.4-2.4c0.5-0.5,1.3-0.8,2-0.6c8,1.4,13.7,6.6,14.3,12.9c0.1,1.1-0.5,2.1-1.6,2.4
	C212.9,646,207.2,646.7,201.4,646.7z M197.4,630.2h-0.2c-7.4,1.3-12.8,6.1-13.3,11.8c0,0.5,0.3,1,0.8,1.2c5.4,1.6,11,2.3,16.7,2.3
	c5.6,0.1,11.3-0.7,16.7-2.3c0.5-0.2,0.8-0.6,0.8-1.1c-0.5-5.7-5.9-10.5-13.3-11.8c-0.4-0.1-0.7,0-1,0.3l-3.2,3.2l-3.2-3.2
	C197.9,630.3,197.7,630.2,197.4,630.2L197.4,630.2z M201.4,643.4c-4.9,0-9.8-0.6-14.6-1.8l-0.6-0.2l0.2-0.6c1.1-3.9,5.1-7,10.4-8.3
	l0.3-0.1l3.6,3.6c0.4,0.4,1.1,0.4,1.5,0l3.6-3.6l0.3,0.1c5.3,1.2,9.2,4.4,10.4,8.3l0.2,0.6l-0.6,0.2
	C211.2,642.8,206.3,643.4,201.4,643.4L201.4,643.4z M187.7,640.6c9,2.1,18.3,2.1,27.3,0c-1.2-3.1-4.6-5.7-9-6.8l-3.1,3.1
	c-0.9,0.9-2.3,0.9-3.2,0l-3.1-3.1C192.3,634.9,188.9,637.5,187.7,640.6L187.7,640.6z M191.8,616.9c0,5.3,4.3,9.6,9.6,9.6
	c5.3,0,9.6-4.3,9.6-9.6c0-5.3-4.3-9.6-9.6-9.6c0,0,0,0,0,0C196.1,607.3,191.8,611.6,191.8,616.9
	C191.8,616.9,191.8,616.9,191.8,616.9z M201.4,623.1c-3.5,0-6.3-2.8-6.3-6.3c0-3.5,2.8-6.3,6.3-6.3s6.3,2.8,6.3,6.3
	C207.6,620.3,204.8,623.1,201.4,623.1z"/>
<path class="st0" d="M201.4,627.1c-5.6,0-10.2-4.6-10.2-10.2c0-5.6,4.6-10.2,10.2-10.2c5.6,0,10.2,4.6,10.2,10.2
	C211.6,622.5,207,627.1,201.4,627.1z M201.4,607.8c-5,0-9,4-9,9s4,9,9,9s9-4,9-9S206.4,607.8,201.4,607.8z M201.4,623.7
	c-3.8,0-6.8-3.1-6.8-6.9c0-3.8,3.1-6.8,6.9-6.8c3.8,0,6.8,3.1,6.8,6.9l0,0C208.2,620.7,205.2,623.7,201.4,623.7z M201.4,611.2
	c-3.1,0-5.7,2.5-5.7,5.7s2.5,5.7,5.7,5.7s5.7-2.5,5.7-5.7l0,0C207.1,613.7,204.5,611.2,201.4,611.2z"/>
<path class="st0" d="M637.5,354.1c-0.3,0.7-0.9,1.1-1.6,1.1h-2.1v17.6c0,0.9-0.8,1.7-1.7,1.7h-13.4c-0.9,0-1.7-0.7-1.7-1.6
	c0,0,0,0,0-0.1V363h-6.2v9.9c0,0.9-0.8,1.7-1.7,1.7h-13.5c-0.9,0-1.7-0.8-1.7-1.7v-17.6h-2.1c-0.9,0.1-1.7-0.6-1.8-1.6
	c0-0.6,0.2-1.1,0.7-1.4l22-19.4c0.7-0.5,1.6-0.5,2.2,0l6.5,5.7c0.3-0.2,0.6-0.3,1-0.3h5.7c0.9-0.1,1.7,0.6,1.8,1.5
	c0,0.1,0,0.1,0,0.2v6l7.1,6.3C637.6,352.7,637.8,353.5,637.5,354.1z M636.1,353.4l-7.6-6.7V340c0-0.1-0.1-0.2-0.2-0.2h-5.7
	c-0.1,0-0.2,0.1-0.2,0.1l-0.4,1L614,334c-0.1,0-0.2-0.1-0.3,0l-22,19.4c-0.1,0.1-0.1,0.1-0.1,0.2c0.1,0.1,0.2,0.1,0.2,0.1h3.7v19.1
	c0,0.1,0.1,0.2,0.2,0.2h13.5c0.1,0,0.2-0.1,0.2-0.2c0,0,0,0,0,0v-11.4h9.2v11.4c0,0.1,0.1,0.2,0.2,0.2c0,0,0,0,0,0h13.4
	c0.1,0,0.2-0.1,0.2-0.2v-19.1h3.6c0.1,0,0.2-0.1,0.2-0.1C636.1,353.5,636.1,353.5,636.1,353.4L636.1,353.4z"/>
<path class="st0" d="M632.1,376h-13.4c-1.7,0-3-1.3-3.1-2.9c0-0.1,0-0.1,0-0.2v-8.5h-3.4v8.5c0,1.7-1.4,3.1-3.1,3.1h-13.5
	c-1.7,0-3.1-1.4-3.1-3.1v-16.3h-0.7c-1.7,0.1-3.1-1.2-3.2-2.8c-0.1-1,0.4-2,1.2-2.6l22-19.4c1.2-0.9,2.8-0.9,4,0l5.9,5.2
	c0.3-0.1,0.5-0.1,0.8-0.1h5.7c1.7,0,3,1.3,3.1,2.9c0,0,0,0.1,0,0.1v5.4l6.6,5.9c0.9,0.8,1.3,2.1,0.9,3.3c-0.4,1.2-1.6,2.1-2.9,2
	h-0.7v16.3C635.2,374.6,633.8,376,632.1,376L632.1,376z M619.9,371.8H631v-19.4h1.9l-5.8-5.1v-6.2h-3.8l-0.8,2.2l-8.7-7.7l-19,16.7
	h2v19.4H608v-11.6h11.9L619.9,371.8z M614.7,335l-0.2,0.2C614.6,335.1,614.7,335,614.7,335L614.7,335z"/>
<path class="st1" d="M487.4,342.5H352.5c-7.1,0-12.9,5.8-12.9,12.9v95c0,7.1,5.8,12.9,12.9,12.9h44.4l-2.1,12.8H391
	c-7.1,0-12.9,5.8-12.9,12.9c0,1.8,1.4,3.2,3.2,3.3h77.1c1.8,0,3.2-1.5,3.2-3.3c0-7.1-5.8-12.9-12.9-12.9h-3.7l-2.1-12.8h44.4
	c7.1,0,12.9-5.8,12.9-12.9v-95C500.2,348.3,494.5,342.6,487.4,342.5L487.4,342.5z M448.8,482.5c2.3,0,4.4,1.2,5.5,3.1h-68.8
	c1.1-2,3.2-3.2,5.5-3.1H448.8z M401.3,476.1l2.1-12.8h33l2.1,12.8H401.3z M493.8,450.4c0,3.5-2.9,6.4-6.4,6.4H352.5
	c-3.5,0-6.4-2.9-6.4-6.4v-95c0-3.5,2.9-6.4,6.4-6.4h134.9c3.5,0,6.4,2.9,6.4,6.4L493.8,450.4L493.8,450.4z"/>
<path class="st1" d="M480.9,354.1h-122c-4.3,0-7.8,3.5-7.8,7.8v68.4c0,4.3,3.5,7.8,7.8,7.8h122c4.3,0,7.8-3.5,7.8-7.8v-68.4
	C488.7,357.6,485.2,354.1,480.9,354.1z M482.2,430.2c0,0.7-0.6,1.3-1.3,1.3h-122c-0.7,0-1.3-0.6-1.3-1.3v-68.4
	c0-0.7,0.6-1.3,1.3-1.3h122c0.7,0,1.3,0.6,1.3,1.3L482.2,430.2L482.2,430.2z M40.3,342.1c-3.3,0-6,2.7-6,6v69.6c0,5,4.1,9.1,9.1,9.1
	h115c5,0,9.1-4.1,9.1-9.1v-69.6c0-3.3-2.7-6-6.1-6H40.3z M158.3,432.9h-115c-8.4,0-15.1-6.8-15.1-15.1v-69.6
	c0-6.7,5.4-12.1,12.1-12.1c0,0,0,0,0,0h121.1c6.7,0,12.1,5.4,12.1,12.1v69.6C173.4,426.1,166.6,432.8,158.3,432.9L158.3,432.9z"/>
<path class="st1" d="M76.6,426.8H125v-21.2H76.6V426.8z M128,432.8H73.5c-1.7,0-3-1.3-3-3v-27.3c0-1.7,1.3-3,3-3H128
	c1.7,0,3,1.3,3,3v27.2C131,431.5,129.7,432.8,128,432.8L128,432.8z M32.5,272.5c-9.1,0-16.5,7.4-16.5,16.5c0,2.1,0.4,4.1,1.1,6
	l14.6,37.2c0.9,2.3,3.1,3.9,5.6,3.8h126.8c2.5,0,4.7-1.5,5.6-3.8l14.6-37.2c3.3-8.5-0.9-18-9.3-21.4c-1.9-0.8-4-1.1-6.1-1.1H32.5z
	 M164.2,342.1H37.4c-5,0-9.5-3-11.3-7.7l-14.6-37.2c-4.5-11.6,1.2-24.7,12.8-29.2c2.6-1,5.4-1.5,8.2-1.5H169
	c12.5,0,22.5,10.1,22.5,22.6c0,2.8-0.5,5.6-1.5,8.2l-14.6,37.2C173.6,339,169.2,342.1,164.2,342.1L164.2,342.1z M170.4,360.2H31.2
	c-1.7,0-3-1.4-3-3s1.4-3,3-3h139.2c1.7,0,3,1.4,3,3S172.1,360.2,170.4,360.2 M52.4,369.3h-9.1c-1.7,0-3-1.4-3-3s1.4-3,3-3h9.1
	c1.7,0,3,1.4,3,3S54,369.3,52.4,369.3 M58.4,381.4H43.3c-1.7,0-3-1.3-3-3s1.3-3,3-3h15.1c1.7,0,3,1.3,3,3S60.1,381.4,58.4,381.4
	 M52.4,393.5h-9.1c-1.7,0-3-1.4-3-3s1.4-3,3-3h9.1c1.7,0,3,1.4,3,3S54,393.5,52.4,393.5 M73.5,393.5h-9.1c-1.7,0-3-1.4-3-3
	s1.4-3,3-3h9.1c1.7,0,3,1.4,3,3S75.2,393.5,73.5,393.5 M115.9,393.5H85.7c-1.7,0-3-1.4-3-3s1.4-3,3-3h30.3c1.7,0,3,1.4,3,3
	S117.6,393.5,115.9,393.5L115.9,393.5 M158.3,369.3h-9.1c-1.7,0-3-1.4-3-3s1.4-3,3-3h9.1c1.7,0,3,1.4,3,3S160,369.3,158.3,369.3
	 M158.3,393.5h-9.1c-1.7,0-3-1.4-3-3s1.4-3,3-3h9.1c1.7,0,3,1.4,3,3S160,393.5,158.3,393.5 M137.1,393.5H128c-1.7,0-3-1.4-3-3
	s1.4-3,3-3l0,0h9.1c1.7,0,3,1.4,3,3S138.8,393.5,137.1,393.5 M158.3,381.4h-15.1c-1.7,0-3-1.3-3-3s1.3-3,3-3h15.1c1.7,0,3,1.3,3,3
	S159.9,381.4,158.3,381.4 M67.5,366.3c0-1.7-1.3-3-3-3s-3,1.3-3,3s1.3,3,3,3S67.5,367.9,67.5,366.3 M79.6,366.3c0-1.7-1.3-3-3-3
	s-3,1.3-3,3s1.3,3,3,3S79.6,367.9,79.6,366.3 M91.7,366.3c0-1.7-1.3-3-3-3s-3,1.3-3,3s1.3,3,3,3S91.7,367.9,91.7,366.3 M103.8,366.3
	c0-1.7-1.3-3-3-3s-3,1.3-3,3s1.3,3,3,3S103.8,367.9,103.8,366.3 M115.9,366.3c0-1.7-1.3-3-3-3s-3,1.3-3,3s1.3,3,3,3
	S115.9,367.9,115.9,366.3 M128,366.3c0-1.7-1.3-3-3-3s-3,1.3-3,3s1.3,3,3,3S128,367.9,128,366.3 M140.1,366.3c0-1.7-1.3-3-3-3
	s-3,1.3-3,3s1.3,3,3,3S140.1,367.9,140.1,366.3 M73.5,378.4c0-1.7-1.3-3-3-3s-3,1.3-3,3s1.3,3,3,3S73.5,380,73.5,378.4 M85.7,378.4
	c0-1.7-1.3-3-3-3s-3,1.3-3,3s1.3,3,3,3S85.7,380,85.7,378.4 M97.8,378.4c0-1.7-1.3-3-3-3s-3,1.3-3,3s1.3,3,3,3S97.8,380,97.8,378.4
	 M109.9,378.4c0-1.7-1.3-3-3-3s-3,1.3-3,3s1.3,3,3,3S109.9,380,109.9,378.4 M122,378.4c0-1.7-1.3-3-3-3s-3,1.3-3,3s1.3,3,3,3
	S122,380,122,378.4 M134.1,378.4c0-1.7-1.3-3-3-3s-3,1.3-3,3s1.3,3,3,3S134.1,380,134.1,378.4 M52.4,351.1h-9.1c-1.7,0-3-1.4-3-3
	s1.4-3,3-3h9.1c1.7,0,3,1.4,3,3S54,351.1,52.4,351.1 M158.3,351.1H128c-1.7,0-3-1.4-3-3s1.4-3,3-3l0,0h30.3c1.7,0,3,1.4,3,3
	S159.9,351.1,158.3,351.1 M772.4,335.9H785c0.7,0,1.3-0.6,1.3-1.3c0-0.7-0.6-1.3-1.3-1.3h-12.6c-0.7,0-1.3,0.6-1.3,1.3
	C771,335.3,771.6,335.9,772.4,335.9z"/>
<circle class="st0" cx="766" cy="334.5" r="1.5"/>
<circle class="st0" cx="778.7" cy="329" r="1.1"/>
<path class="st0" d="M807.8,321.6h-58.3c-6.7,0-12.2,5.5-12.2,12.2v9.7c-0.5,0.2-0.9,0.7-0.9,1.3v6c0,0.6,0.4,1.1,0.9,1.3v6.2
	c-0.5,0.2-0.9,0.7-0.9,1.3v10.3c0,0.6,0.4,1.1,0.9,1.3v2.4c-0.5,0.2-0.9,0.7-0.9,1.3v10.3c0,0.6,0.4,1.1,0.9,1.3v91.3
	c0,6.7,5.5,12.2,12.2,12.2h58.3c6.7,0,12.2-5.5,12.2-12.2V333.8C820,327,814.5,321.6,807.8,321.6z M815.6,477.3
	c0,4.3-3.5,7.8-7.8,7.8l0,0h-58.3c-4.3,0-7.8-3.5-7.8-7.8V333.8c0-4.3,3.5-7.8,7.8-7.8h58.3c4.3,0,7.8,3.5,7.8,7.8l0,0V477.3z"/>
<path class="st0" d="M809.4,344H748c-0.4,0-0.8,0.4-0.8,0.8v111.3c0,0.4,0.4,0.8,0.8,0.8h61.4c0.4,0,0.8-0.4,0.8-0.8c0,0,0,0,0,0
	V344.8C810.2,344.3,809.9,344,809.4,344C809.4,344,809.4,344,809.4,344L809.4,344z M808.6,455.3h-59.8V345.6h59.8V455.3L808.6,455.3
	z M778.7,464.3c-3.6,0-6.6,2.9-6.6,6.6s2.9,6.6,6.6,6.6c3.6,0,6.6-2.9,6.6-6.6c0,0,0,0,0,0C785.2,467.3,782.3,464.3,778.7,464.3
	L778.7,464.3L778.7,464.3z M778.7,475.8c-2.7,0-4.9-2.2-4.9-4.9c0-2.7,2.2-4.9,4.9-4.9s4.9,2.2,4.9,4.9c0,0,0,0,0,0
	C783.5,473.6,781.4,475.8,778.7,475.8L778.7,475.8L778.7,475.8z"/>
<path class="st0" d="M778.7,479c-4.5,0-8.1-3.6-8.1-8.1s3.6-8.1,8.1-8.1s8.1,3.6,8.1,8.1S783.2,479,778.7,479L778.7,479z
	 M778.7,467.6c-1.8,0-3.3,1.5-3.3,3.3c0,1.8,1.5,3.3,3.3,3.3c1.8,0,3.3-1.5,3.3-3.3c0,0,0,0,0,0C782,469.1,780.5,467.6,778.7,467.6
	L778.7,467.6z M809.4,458.5H748c-1.3,0-2.4-1.1-2.4-2.4V344.8c0-1.3,1.1-2.4,2.4-2.4h61.4c1.3,0,2.4,1.1,2.4,2.4v111.3
	C811.8,457.4,810.7,458.5,809.4,458.5C809.4,458.5,809.4,458.5,809.4,458.5L809.4,458.5z M750.3,453.7H807V347.1h-56.7L750.3,453.7z
	 M294.2,247.2c-0.6,1-1.2,2-1.7,2.8c-1.4,2.2-2.5,4.5-3.3,7c-0.5,2.2-0.8,4.4-0.7,6.6c-0.1,0.9-0.1,1.8-0.2,2.8v9.8
	c0,2.5-2.1,4.6-4.7,4.5H281l-3.1,5.9c-0.2,0.4-0.6,0.7-1.1,0.7H270c-0.5,0-0.9-0.3-1.1-0.7l-3.1-5.9h-2.7c-2.5,0-4.5-2-4.5-4.5
	c0,0,0,0,0,0v-9.8c-0.1-1-0.1-2-0.3-2.8c0-2.2-0.3-4.4-0.9-6.6c-0.8-2.4-1.9-4.8-3.2-7c-0.6-0.9-1.1-1.8-1.8-2.8
	c-6.3-9.7-3.7-18.5-3.4-19.4c0.1-0.7,0.4-1.4,0.6-2l0.1-0.2c1.9-4.7,5.1-8.8,9.2-11.7c9-6.5,21.1-6.2,29.8,0.7
	c4.2,3.4,7.3,8,8.9,13.2C297.9,228.2,300.8,237.3,294.2,247.2L294.2,247.2z M295.4,228.5c-3.1-9.8-12.3-16.9-21.9-16.9
	c-9.5,0.3-17.9,6.2-21.4,14.9l-0.1,0.3c-0.2,0.6-0.4,1.1-0.6,1.7v0.1c-1.5,5.9-0.3,12.2,3.2,17.3c0.6,1,1.2,2,1.8,2.8
	c1.5,2.4,2.6,4.9,3.6,7.6c0.5,2.4,0.8,4.8,0.9,7.2c0,0.5,0.1,1.1,0.1,1.7h25c0.1-0.6,0.1-1.1,0.1-1.7c0-2.4,0.4-4.9,1-7.2
	c0.8-2.7,2-5.2,3.4-7.6c0.6-0.9,1.1-1.7,1.8-2.8C295.7,240.8,296.9,234.5,295.4,228.5L295.4,228.5z M274,217c0,0.6-0.5,1.2-1.1,1.2
	c-6.5,0.5-12.1,4.6-14.5,10.7c-0.2,0.5-0.7,0.7-1.2,0.7h-0.4c-0.6-0.3-0.9-1-0.7-1.6c2.7-7,9.2-11.7,16.6-12.1
	C273.4,215.8,273.9,216.3,274,217C274,216.9,274,217,274,217z M285.8,271.6v-3.9h-24.9v3.9H285.8L285.8,271.6z M285.8,276.3v-2.2
	h-24.9v2.2c0,1.2,1,2.1,2.2,2.1h20.6c1.1,0.1,2-0.7,2.1-1.8C285.8,276.5,285.8,276.4,285.8,276.3L285.8,276.3z M278.2,280.8h-9.6
	l2.1,4.2h5.4L278.2,280.8z"/>
<path class="st0" d="M276.8,288.6h-6.9c-0.9,0-1.8-0.5-2.1-1.4l-2.7-5.2h-2c-3.1,0-5.7-2.6-5.7-5.7v0v-9.8c0-0.3-0.1-0.8-0.1-1.3
	s-0.1-0.9-0.1-1.4c0-2.2-0.3-4.3-0.8-6.5c-0.8-2.4-1.8-4.6-3.1-6.7c-0.2-0.3-0.5-0.7-0.8-1.2s-0.6-1-1-1.5c-4-6-5.4-13.4-3.6-20.4
	c0.2-0.7,0.4-1.4,0.6-2.1l0.2-0.4c2-4.9,5.3-9.1,9.7-12.2c9.4-6.8,22.1-6.5,31.2,0.8c4.4,3.6,7.6,8.4,9.3,13.8
	c0.3,1,3,10.3-3.7,20.3c-0.6,1-1.2,1.9-1.7,2.8c-1.3,2.1-2.4,4.4-3.2,6.8c-0.5,2-0.7,4.1-0.7,6.2c-0.1,0.6-0.1,1-0.1,1.5
	s-0.1,1-0.1,1.5v9.7c0,3.2-2.6,5.7-5.8,5.7h-1.9l-2.7,5.3C278.5,288.1,277.7,288.6,276.8,288.6L276.8,288.6z M259.8,277
	c0.4,1.5,1.7,2.6,3.3,2.6h3.4l3.4,6.5l6.9,0.1l3.5-6.6h3.3c0.9,0,1.8-0.4,2.4-1c-0.6,0.6-1.5,0.9-2.3,0.9h-20.6
	C261.6,279.5,260.2,278.5,259.8,277L259.8,277z M286.9,276.2c0.1,0.7-0.1,1.4-0.5,2c0.4-0.6,0.6-1.2,0.6-1.9v-9.8
	c0.1-0.6,0.1-1,0.1-1.5s0.1-1,0.1-1.5c0-2,0.1-4,0.6-6c-0.4,2-0.7,4-0.7,6.1c0,0.6,0,1.3-0.1,1.9l-0.2,1l-27.1,0.1h27.2v5.1h-1v1.2
	l-26.1,0.1h27.2L286.9,276.2z M262,275.2v1c0,0.5,0.5,0.9,1,0.9h20.6c0.3,0,0.6-0.1,0.8-0.3c0.1-0.1,0.2-0.3,0.1-0.5v-1.2L262,275.2
	z M262,270.4h22.5v-1.6H262L262,270.4z M272.7,210.4c-4.7,0.2-9.2,1.7-13,4.4c-4,2.8-7.1,6.7-8.9,11.2l-0.2,0.4
	c-0.2,0.5-0.4,1.1-0.5,1.6c-1.6,6.3-0.4,13.1,3.3,18.5c0.4,0.5,0.7,1.1,1.1,1.6c0.3,0.4,0.5,0.8,0.7,1.1c1.4,2.3,2.5,4.8,3.4,7.3
	c0.6,2.2,0.9,4.6,0.9,6.9c0.1,0.4,0.1,0.9,0.1,1.4s0,0.9,0.1,1.3v-1.1c0-0.3,0-0.6-0.1-0.8c0-0.3-0.1-0.6-0.1-0.9
	c0-2.3-0.3-4.7-0.8-6.9c-0.9-2.4-2-4.8-3.3-7l-0.2-0.3c-0.5-0.7-1.1-1.7-1.7-2.7c-3.7-5.3-4.9-11.9-3.4-18.2v-0.2
	c0.2-0.6,0.4-1.3,0.7-1.9l0.2-0.4C254.7,217.1,263.1,211,272.7,210.4L272.7,210.4z M262,264.1h22.9v-0.5c0-2.6,0.3-5.1,1-7.6
	c0.8-2.6,1.9-5.2,3.4-7.6l0.1-0.3c0.4-0.6,0.7-1,1-1.5s0.5-0.9,0.9-1.4c3.3-4.8,4.3-10.7,3-16.3v-0.1c-2.9-9.3-11.7-16-20.8-16
	c-9,0.3-17,5.9-20.4,14.2l-0.1,0.3c-0.2,0.4-0.4,0.9-0.5,1.4l-0.1,0.3c-1.3,5.6-0.2,11.5,3,16.3c0.7,1.1,1.2,2,1.8,2.8l0.2,0.4
	c1.5,2.4,2.6,4.9,3.5,7.6c0.6,2.5,0.9,5,0.9,7.5C261.9,263.7,262,263.9,262,264.1z M296.6,228.3c1.5,6.3,0.2,12.9-3.4,18.2
	c-0.3,0.5-0.6,0.9-0.9,1.3l-1,1.5l-0.1,0.1c-1.3,2.2-2.4,4.5-3.1,6.9c0.9-2.5,2-4.8,3.4-7c0.5-0.8,1.1-1.8,1.7-2.8
	C299.4,237.4,297,229.2,296.6,228.3c-1.5-5-4.5-9.4-8.5-12.7c-3.6-2.9-8-4.6-12.5-5c9.4,0.9,18,8.1,21,17.6L296.6,228.3z
	 M276.8,286.1H270l-3.3-6.5H280L276.8,286.1z M271.4,283.8h4l0.9-1.8h-5.8L271.4,283.8z M257.2,230.8l-0.8-0.1
	c-1.2-0.5-1.8-1.9-1.4-3.1c2.8-7.4,9.8-12.5,17.7-12.9c0.6-0.1,1.1,0.1,1.6,0.5c1,0.8,1.2,2.3,0.3,3.3c-0.4,0.5-1.1,0.8-1.7,0.9
	c-6,0.5-11.2,4.3-13.4,9.9C259.1,230.2,258.2,230.8,257.2,230.8L257.2,230.8z M257.2,228.4c2.6-6.5,8.6-10.9,15.6-11.4
	C265.8,217.4,259.7,221.8,257.2,228.4L257.2,228.4z M332.6,311L300,351.8c-0.2,0.3-0.6,0.4-0.9,0.5c-0.1,0-0.4-0.1-0.5-0.1
	c-0.5-0.2-0.8-0.9-0.6-1.4l10.4-30h-16.1c-0.4,0-0.8-0.2-1-0.6c-0.3-0.4-0.2-0.9,0.1-1.3l33-40.8c0.4-0.5,1.1-0.7,1.6-0.3
	c0.5,0.3,0.7,1,0.4,1.5l-11.9,29.8h17.2c0.4,0,0.9,0.2,1,0.6C333,310.1,332.9,310.7,332.6,311L332.6,311z M329.2,311.5h-16.5
	c-0.4,0-0.8-0.2-1-0.6c-0.2-0.3-0.2-0.7-0.1-1.1l9.8-24.2l-26.7,32.9h15.4c0.4,0,0.7,0.2,0.9,0.6c0.2,0.3,0.3,0.7,0.1,1.1l-8.6,24.9
	L329.2,311.5z"/>
<path class="st0" d="M299.1,353.5l-0.9-0.1l-0.2-0.2c-1.1-0.6-1.5-1.8-1-2.9l9.8-28.3h-14.5c-0.9,0-1.8-0.5-2.2-1.4
	c-0.4-0.8-0.3-1.8,0.4-2.5l32.9-40.7c0.7-0.9,2-1.2,3-0.7c1,0.6,1.4,1.9,1,3L316.1,308h15.5c0.9,0,1.8,0.5,2.2,1.4
	c0.4,0.8,0.3,1.8-0.4,2.4L301,352.6C300.5,353.1,299.8,353.4,299.1,353.5z M299.2,351.1L299.2,351.1l32.4-40.8L299.2,351.1z
	 M297.1,317.3h13c0.8,0,1.5,0.4,1.9,1.1c0.4,0.6,0.5,1.4,0.2,2.1l-6.4,18.5l20.9-26.3h-14.1c-0.8,0-1.6-0.4-2-1.1
	c-0.3-0.6-0.4-1.3-0.3-2l6.9-17L297.1,317.3z M310.1,319.8L310.1,319.8L310.1,319.8z M298.3,319.7H310H298.3z M321.5,288.2l-9,22
	h0.1L321.5,288.2z M325.2,278.9l-6.5,8.1L325.2,278.9z M614.5,100.5c-2,5.2-6.6,10.6-11.5,11c-0.2,0-0.4,0.1-0.6,0.1
	c-1.8,0-4.2-0.8-6.3-3.9c-1-1.6-0.8-3.7-0.6-6c0.3-4,0.6-8.6-4.8-11.5l-0.8-0.3c-0.4,0.3-0.8,0.6-1.3,0.8c-0.5,0.3-1.1,0.5-1.7,0.7
	l0.1,0.1c1.3,1.8,6.8,12.2,1.5,19c-2.5,3.4-6.6,5.4-10.8,5.3c-3.8,0-7.7-1.3-10.8-2.4c-5.1-2-10.6-6.6-11-11.5
	c-0.2-1.9,0.3-4.7,3.9-6.9c1.5-1,3.7-0.8,5.9-0.6c3.9,0.2,8.4,0.5,11.3-4.4c-1.7-1.2-3-2.9-3.7-4.9c-3.6,2.3-7.7,3.6-11.9,3.8
	c-2.6,0.1-5.1-0.7-7.2-2.2c-7.6-5.9-5.3-15.2-2.8-21.7c2-5.1,6.6-10.5,11.5-11c1.9-0.1,4.7,0.3,6.9,3.9c1,1.5,0.7,3.7,0.6,6
	c-0.3,4-0.6,8.4,4.3,11.3c1.7-2.2,4.1-3.7,6.9-4.1c-1.9-3.4-5.4-12-0.8-17.9c5.9-7.7,15.2-5.3,21.5-2.8c5.2,2,10.6,6.6,11.1,11.5
	c0.1,1.9-0.4,4.6-3.9,6.8c-1.6,1.1-3.7,0.8-6,0.7c-4-0.3-8.6-0.6-11.5,4.8l-0.3,0.7c0.3,0.4,0.6,0.8,0.8,1.3
	c0.6,1.1,1.1,2.3,1.3,3.6c3.4-1.9,12-5.4,18-0.8C619.5,85,617,94.2,614.5,100.5z M572.8,83c-0.2-1.4-0.1-2.8,0.2-4.1
	c0.2-0.6,0.4-1.2,0.6-1.7c-6-3.5-5.6-9.1-5.3-13.3c0.1-1.9,0.2-3.7-0.3-4.7c-1.4-2.1-3-3.2-4.9-3c-3.5,0.3-7.8,4.7-9.8,9.8
	c-3.6,9.2-3,15.2,2.1,19.1c5.9,4.6,15.3-0.6,16.5-1.5L572.8,83z M584.9,92.1c-0.5,0-1.1,0.1-1.5,0.1c-1,0-1.9-0.1-2.9-0.4
	c-0.6-0.1-1.2-0.3-1.7-0.5c-3.5,5.9-9,5.6-13.2,5.3c-1.9-0.1-3.8-0.3-4.8,0.3c-2.1,1.4-3.1,3-2.9,4.9c0.3,3.4,4.6,7.8,9.7,9.7
	c9.3,3.7,15.3,3,19.2-2c4.5-5.9-0.6-15.3-1.6-16.6L584.9,92.1z M591.6,83.7c0.6-2.2,0.3-4.5-0.8-6.5c-1.2-1.9-3-3.3-5.2-3.9
	c-0.7-0.2-1.5-0.3-2.2-0.3c-4.7,0.1-8.5,3.9-8.4,8.6c0,3.8,2.6,7.2,6.3,8.1c2.2,0.6,4.5,0.3,6.5-0.8C589.6,87.8,591,85.9,591.6,83.7
	L591.6,83.7z M588.3,82.9c-0.6,2.3-2.7,3.9-5,3.8c-0.4,0-0.9,0-1.3-0.1c-2.8-0.7-4.4-3.6-3.7-6.4c0.4-1.3,1.3-2.5,2.4-3.2
	c1.2-0.7,2.6-0.8,3.9-0.4C587.4,77.3,589,80.1,588.3,82.9C588.3,82.8,588.3,82.9,588.3,82.9L588.3,82.9z M584.1,78.7
	c-0.3-0.1-0.6-0.1-0.9-0.1c-0.5,0-1,0.1-1.5,0.4c-0.7,0.4-1.3,1-1.5,1.8c-0.4,1.6,0.5,3.2,2.1,3.7c0,0,0.1,0,0.1,0
	c1.6,0.4,3.3-0.5,3.7-2.1C586.7,80.8,585.7,79.1,584.1,78.7z M583.9,71c0.7,0,1.4,0.1,2.1,0.3c1.5,0.4,2.8,1.1,4,2v-0.1
	c3.5-6.7,9.3-6.3,13.6-5.9c1.9,0.1,3.7,0.2,4.7-0.3c2.1-1.4,3.2-3,3-4.9c-0.3-3.5-4.7-7.8-9.8-9.8c-9.2-3.6-15.2-3-19.1,2.1
	C577.9,60.4,583,69.7,583.9,71z M610.5,80.7c-5.9-4.5-15.3,0.6-16.6,1.6c0,0.7-0.1,1.4-0.3,2.1c-0.4,1.4-1,2.8-2,3.9l0.1,0.1
	c6.7,3.4,6.3,9.2,5.9,13.5c-0.1,1.9-0.2,3.8,0.3,4.8c1.4,2.1,3,3.1,4.9,2.9c3.5-0.3,7.8-4.6,9.8-9.7
	C616.2,90.5,615.6,84.6,610.5,80.7L610.5,80.7z"/>
<path class="st0" d="M577.8,117.1c-3.8,0-7.7-1.2-11.2-2.5c-5.4-2.1-11.3-6.9-11.8-12.5c-0.2-1.8,0.1-5.3,4.5-8
	c1.8-1.2,4.3-1,6.7-0.8c3.7,0.2,7.1,0.4,9.6-3c-1.1-1-2-2.1-2.7-3.4c-3.5,2-7.4,3.1-11.4,3.3c-2.8,0-5.6-0.8-7.9-2.4
	c-9.4-7.3-4.7-19.1-3.2-23c2.1-5.3,6.8-11.2,12.4-11.8c3.4-0.2,6.1,1.3,8,4.5c1.1,1.7,1,3.9,0.8,6.1V64c-0.3,3.7-0.6,7.2,2.8,9.7
	c1.5-1.6,3.3-2.8,5.4-3.4c-1.7-3.5-4.7-11.7,0-17.8c7.2-9.4,19-4.7,22.9-3.1c5.3,2,11.3,6.8,11.9,12.4c0.2,3.3-1.3,5.9-4.5,7.9
	c-1.8,1.2-3.9,1.1-6.2,1h-0.5c-3.9-0.3-7.9-0.6-10.4,4.2c0.2,0.3,0.4,0.6,0.6,0.9c0.4,0.8,0.7,1.6,1,2.4c3.5-1.7,11.7-4.8,17.9,0
	c9.4,7.3,4.7,19,3.1,22.9c-2.1,5.3-6.8,11.3-12.4,11.8c-0.2,0.1-0.5,0.1-0.8,0.1c-1.6,0-4.7-0.6-7.2-4.4c-1.1-1.8-1-3.9-0.8-6.2
	v-0.6c0.3-3.9,0.6-7.9-4.2-10.4c-0.3,0.2-0.6,0.4-0.9,0.6c-0.2,0.1-0.3,0.2-0.5,0.3c2.1,3.7,5.8,12.8,0.8,19.3
	C586.8,115.1,582.4,117.2,577.8,117.1L577.8,117.1z M563.1,97.6c-0.5,0-1.1,0-1.6,0.3c-2.3,1.5-2.5,2.9-2.4,3.8
	c0.3,2.7,3.9,6.8,8.9,8.7c8.7,3.5,14.3,3,17.9-1.7c4-5.3-0.8-14-1.6-15.1l-0.1-0.2h-0.1c-1.3,0.2-2.7,0-4-0.4
	c-0.3-0.1-0.6-0.1-0.8-0.2c-4,5.8-10,5.3-13.7,5.1h-0.7C564.3,97.7,563.7,97.6,563.1,97.6L563.1,97.6z M593.3,88
	c6.3,3.7,5.8,9.9,5.5,14c-0.1,1.6-0.2,3.5,0.2,4.1c1.5,2.2,2.9,2.4,3.7,2.3c3-0.3,7-4.3,8.8-8.9c3.4-8.9,2.9-14.3-1.8-17.9
	c-4.8-3.6-12.6,0-14.7,1.3c0,0.6-0.2,1.2-0.3,1.8C594.4,85.9,593.9,87,593.3,88L593.3,88z M583.3,74.2c-3.3,0-6.2,2.3-7,5.5
	c-0.5,1.9-0.3,3.9,0.7,5.6c1,1.7,2.6,2.9,4.5,3.4c1.9,0.5,3.9,0.3,5.6-0.7c1.7-1,2.9-2.6,3.4-4.5c0.5-1.9,0.3-3.9-0.7-5.6
	c-1-1.7-2.6-2.9-4.5-3.4C584.6,74.3,583.9,74.2,583.3,74.2L583.3,74.2z M590,88.7l0.5,0.2l-0.3-0.3L590,88.7z M563.6,57.4
	c-0.1,0-0.2,0-0.4,0c-3,0.3-7,4.3-8.8,9c-3.4,8.7-2.9,14.2,1.8,17.8c5.2,4,13.7-0.5,15-1.5l0.3-0.2c-0.1-1.3,0-2.6,0.3-3.9
	c0.1-0.3,0.2-0.7,0.3-0.9c-5.8-3.9-5.3-9.8-5-13.8c0.1-1.6,0.2-3.4-0.2-4C565.7,57.8,564.5,57.4,563.6,57.4z M584.6,69.9
	c0.6,0,1.2,0.2,1.8,0.3c1.1,0.3,2.2,0.8,3.3,1.4c3.9-6.3,10-5.8,14.1-5.5c1.6,0.1,3.4,0.2,4-0.2c2.3-1.5,2.5-2.9,2.4-3.7
	c-0.3-3-4.3-7-9-8.8c-8.7-3.4-14.2-2.9-17.8,1.8C579.6,60,583.3,67.7,584.6,69.9L584.6,69.9z M583.3,87.9c-0.5,0-1,0-1.5-0.1
	c-3.4-0.9-5.5-4.4-4.6-7.8c0,0,0,0,0,0c0.5-1.6,1.6-3,3-3.9c3.1-1.7,6.9-0.6,8.7,2.3c0.8,1.4,1.1,3.2,0.6,4.8
	C588.8,86,586.2,88,583.3,87.9L583.3,87.9z M583.3,79.7c-0.3,0-0.6,0.1-0.8,0.2c-0.5,0.2-0.9,0.7-1.1,1.2c-0.3,1,0.3,2,1.3,2.2
	c0,0,0.1,0,0.1,0c1,0.3,2-0.3,2.3-1.3c0.3-1-0.3-2-1.3-2.3h-0.1C583.7,79.7,583.5,79.7,583.3,79.7L583.3,79.7z M588.9,474.9
	c0,0.7-0.6,1.4-1.3,1.4h-9.3c-0.7-0.1-1.3-0.7-1.2-1.5c0.1-0.7,0.6-1.2,1.2-1.2h9.3C588.3,473.6,588.9,474.2,588.9,474.9z
	 M588.9,487.6c0,0.7-0.6,1.3-1.3,1.4h-9.3c-0.7,0-1.3-0.5-1.3-1.2c0,0,0-0.1,0-0.1c0-0.7,0.6-1.4,1.3-1.4h9.3
	C588.3,486.3,588.9,486.9,588.9,487.6z M588.9,500.4c0,0.7-0.6,1.3-1.3,1.4h-9.3c-0.7,0-1.3-0.6-1.3-1.4c0-0.7,0.5-1.3,1.2-1.3
	c0.1,0,0.1,0,0.2,0h9.3C588.3,499.1,588.9,499.7,588.9,500.4z M588.9,513.1c0,0.7-0.6,1.3-1.3,1.3h-9.3c-0.7,0-1.3-0.6-1.3-1.3
	c0-0.7,0.6-1.4,1.3-1.4h9.3C588.3,511.7,588.9,512.3,588.9,513.1L588.9,513.1z M623.1,536.7c0,4.9-2.2,9.5-6.1,12.5
	c-2.8,2.2-6.3,3.3-9.8,3.4c-1.3,0-2.5-0.1-3.8-0.4c-5.7-1.4-10.2-5.8-11.6-11.5c-1.7-6.6,1-13.5,6.7-17.3v-48.6
	c0.2-4.8,4.2-8.5,8.9-8.3c4.5,0.2,8.2,3.8,8.3,8.3v48.6C620.3,526.3,623.1,531.3,623.1,536.7z M620.4,536.7c0-4.7-2.5-9-6.6-11.3
	c-0.4-0.3-0.7-0.7-0.7-1.2v-49.2c0-3.3-2.6-5.9-5.9-5.9c0,0,0,0-0.1,0c-3.3,0-5.9,2.7-6,5.9v49.3c0,0.5-0.2,1-0.7,1.2
	c-6.3,3.6-8.5,11.6-4.9,17.9c1.8,3.2,4.8,5.4,8.4,6.3c7,1.8,14.2-2.5,15.9-9.5C620.2,538.9,620.3,537.8,620.4,536.7L620.4,536.7z
	 M612.1,536.7c0,2.8-2.2,5-5,5c-2.7,0-5-2.3-5-5c0.1-2.2,1.5-4.2,3.7-4.8v-38.7c0-0.7,0.6-1.4,1.3-1.4c0.7,0,1.3,0.5,1.3,1.2
	c0,0,0,0.1,0,0.1V532C610.6,532.5,612.2,534.5,612.1,536.7L612.1,536.7z M609.4,536.7c0-1.3-1-2.3-2.2-2.3c0,0,0,0,0,0
	c-1.3,0-2.3,1-2.3,2.3c0,1.3,1,2.3,2.2,2.3c0,0,0,0,0.1,0c1.2,0.1,2.2-0.9,2.3-2.1C609.4,536.8,609.4,536.8,609.4,536.7z
	 M625.4,485.8c-0.5-0.5-0.5-1.3,0-1.9c0,0,0,0,0,0l8.6-9v-0.1c0.1,0,0.3-0.1,0.4-0.3s0.3-0.1,0.5-0.1s0.4,0.1,0.5,0.1
	s0.3,0.3,0.4,0.3v0.1l8.5,8.9c0.4,0.6,0.4,1.4-0.1,2c-0.6,0.4-1.4,0.4-1.9-0.1l-7.4-8l-7.6,8c-0.2,0.3-0.6,0.4-0.9,0.4
	C626.1,486.1,625.8,486,625.4,485.8L625.4,485.8z M644.2,502.6c0.5,0.5,0.5,1.3,0.1,1.8c0,0,0,0-0.1,0.1l-8.4,9h-0.2
	c0,0.1-0.1,0.3-0.3,0.3c-0.2,0.1-0.4,0.2-0.7,0.1c-0.2,0-0.4,0-0.5-0.1c-0.1,0-0.3-0.1-0.4-0.3l-8.4-9c-0.5-0.5-0.5-1.3,0-1.9
	c0,0,0,0,0,0c0.5-0.5,1.3-0.5,1.8-0.1c0,0,0,0,0.1,0.1l7.6,8.1l7.4-8.1c0.5-0.5,1.3-0.6,1.8-0.1
	C644.2,502.5,644.2,502.5,644.2,502.6L644.2,502.6z"/>
<path class="st0" d="M607.2,553.8c-1.3,0-2.7-0.1-4-0.4c-6.2-1.4-11-6.2-12.5-12.3c-1.7-6.9,1-14.1,6.7-18.2v-48
	c0-5.4,4.4-9.8,9.8-9.8c5.4,0,9.8,4.4,9.8,9.8v48c4.6,3.1,7.3,8.3,7.3,13.8c0,5.3-2.4,10.2-6.5,13.5
	C614.7,552.5,611,553.8,607.2,553.8L607.2,553.8z M607.2,467.4c-4.1,0.1-7.4,3.4-7.5,7.5v49.2l-0.5,0.3c-5.3,3.5-7.8,9.9-6.2,16
	c1.3,5.3,5.5,9.3,10.7,10.6c4.4,0.9,9-0.1,12.6-2.8c3.6-2.8,5.6-7.1,5.6-11.6c0-5-2.5-9.6-6.7-12.2l-0.5-0.3v-49.2
	C614.6,470.8,611.3,467.4,607.2,467.4L607.2,467.4z M607.3,551.1c-1.2,0-2.4-0.1-3.5-0.4c-7.7-1.8-12.4-9.5-10.6-17.2
	c0.9-3.9,3.4-7.2,6.9-9.2c0.1,0,0.1-0.1,0.1-0.2v-49.2c0.1-3.9,3.2-7.1,7.1-7.1c3.9,0,7.1,3.2,7.1,7.1v49.3c0,0.1,0,0.1,0.2,0.2
	c4.4,2.5,7.1,7.2,7.1,12.3c0,4.4-2,8.6-5.5,11.3C613.6,550,610.5,551.1,607.3,551.1L607.3,551.1z M607.2,470.1
	c-2.6,0-4.7,2.1-4.8,4.8v49.2c0,0.9-0.4,1.7-1.2,2.2c-5.6,3.5-7.4,10.9-3.9,16.5c3.5,5.6,10.9,7.4,16.5,3.9c0.3-0.2,0.6-0.4,0.9-0.6
	c2.9-2.3,4.6-5.8,4.5-9.5c0-4.3-2.3-8.2-6-10.3c-0.8-0.5-1.3-1.3-1.3-2.2v-49.2c0-2.6-2.1-4.7-4.7-4.8
	C607.2,470.1,607.2,470.1,607.2,470.1L607.2,470.1z M607.2,542.9c-3.4,0-6.2-2.8-6.2-6.2c0-2.4,1.4-4.6,3.6-5.6v-37.9
	c0-1.4,1.1-2.5,2.5-2.5l0,0c1.3,0,2.5,1,2.5,2.3c0,0.1,0,0.1,0,0.2v38c2.2,0.9,3.7,3.1,3.6,5.6C613.3,540.1,610.6,542.8,607.2,542.9
	C607.2,542.9,607.2,542.9,607.2,542.9z M607,493.1v39.6l-0.8,0.3c-1.6,0.5-2.8,2-2.8,3.8c0.1,2.1,1.7,3.8,3.8,3.8
	c2.1,0,3.8-1.7,3.8-3.8c0-1.7-1.1-3.2-2.8-3.6l-0.9-0.2v-39.8L607,493.1z M607.2,540.1c-1.9,0-3.4-1.5-3.5-3.4c0,0,0,0,0-0.1
	c0.1-1.9,1.6-3.4,3.5-3.5c1.9,0,3.4,1.5,3.5,3.4c0,0,0,0.1,0,0.1c0.1,1.8-1.3,3.4-3.2,3.5C607.4,540.2,607.3,540.2,607.2,540.1
	L607.2,540.1z M607.2,535.5c-0.6,0-1.2,0.5-1.2,1.2c0,0.6,0.5,1.1,1.1,1.1c0,0,0,0,0,0c0.5,0.1,1.1-0.3,1.1-0.9c0-0.1,0-0.2,0-0.3
	C608.3,536.1,607.8,535.6,607.2,535.5C607.2,535.6,607.2,535.6,607.2,535.5L607.2,535.5z M587.6,515.5h-9.3
	c-1.4-0.2-2.4-1.4-2.2-2.8c0.1-1.1,1-2,2.2-2.2h9.3c1.4,0.2,2.4,1.4,2.2,2.8C589.7,514.5,588.8,515.4,587.6,515.5z M578.3,512.8
	l-0.2,0.3h9.5l0.2-0.2c0-0.2-0.2-0.2-0.2-0.2L578.3,512.8z M634.8,515c-0.3,0-0.6-0.1-0.9-0.2c-0.3-0.1-0.6-0.3-0.9-0.6l-8.4-9
	c-1-1-1-2.5,0-3.5c0,0,0,0,0,0c0.5-0.5,1.1-0.7,1.8-0.8c0.7,0,1.3,0.3,1.8,0.8l6.7,7.2l6.6-7.2c1-1,2.5-1,3.5-0.1c0,0,0,0,0.1,0.1
	c1,1,1,2.5,0,3.5c0,0,0,0,0,0l-8.8,9.4c-0.1,0.1-0.3,0.2-0.5,0.2C635.5,515,635.2,515.1,634.8,515L634.8,515z M626.6,503.3l-0.2,0.3
	l8.2,8.9v-0.2h0.3L626.6,503.3z M635,512.3h0.4l8.9-9.8l-0.8,0.8c-0.1-0.1-0.2-0.1-0.2,0L635,512.3z M587.6,502.9h-9.3
	c-1.4,0-2.5-1.1-2.5-2.5c0-1.3,1-2.5,2.3-2.5c0.1,0,0.1,0,0.2,0h9.3c1.4,0,2.5,1.1,2.5,2.5C590.1,501.8,589,502.9,587.6,502.9
	L587.6,502.9z M578.3,500.2v0.4h9.3c0.1,0,0.1-0.1,0.2-0.2c0-0.1-0.2-0.2-0.2-0.2L578.3,500.2z M587.6,490.1h-9.3
	c-1.3,0.1-2.5-1-2.5-2.3c0-0.1,0-0.1,0-0.2c0-1.4,1.1-2.5,2.5-2.5h9.3c1.4,0.1,2.5,1.2,2.5,2.5C590.2,488.9,589,490.1,587.6,490.1
	C587.6,490.1,587.6,490.1,587.6,490.1L587.6,490.1z M587.6,487.4h-9.3l-0.2,0.3h9.5l0.2-0.2C587.7,487.5,587.7,487.4,587.6,487.4
	L587.6,487.4z M626.5,487.2c-0.6,0-1.3-0.2-1.8-0.6c-1-1-1-2.5,0-3.5c0,0,0,0,0,0l8.2-8.7v-0.7l1.6-0.4c-0.1,0-0.2,0-0.3,0
	c0.5-0.1,1-0.2,1.5-0.1h0.5l0.2,0.3h0.8v0.8l8.2,8.6c0.9,1.1,0.8,2.6-0.1,3.7c-1,0.9-2.6,0.8-3.5-0.1l-6.6-7.1l-6.7,7.1
	C627.8,487,627.1,487.3,626.5,487.2L626.5,487.2z M626.3,484.9l-0.7,0.9l0.8-0.8C626.3,484.9,626.3,484.9,626.3,484.9L626.3,484.9z
	 M635,476l8.3,8.9c0.1,0.1,0.2,0.1,0.3,0c0,0,0-0.3-0.1-0.4l-8.5-8.9l-0.1,0.1l-8.6,9.2h0.3L635,476z M634,473.6c-0.1,0-0.1,0-0.2,0
	H634z M587.6,477.4h-9.3c-1.4-0.2-2.4-1.4-2.2-2.8c0.1-1.1,1-2,2.2-2.2h9.3c1.4-0.2,2.6,0.8,2.8,2.2c0.2,1.4-0.8,2.6-2.2,2.8
	C588,477.4,587.8,477.4,587.6,477.4z M578.3,474.7l-0.2,0.3h9.5l0.2-0.2c0-0.1-0.2-0.2-0.2-0.2L578.3,474.7z M312.5,378.1v48.6
	c0,4.9-4,8.9-8.9,8.9H255c-4.9,0-8.9-4-8.9-8.9v-48.6c0-4.9,4-8.9,8.9-8.9h48.6C308.5,369.2,312.5,373.2,312.5,378.1z M310.4,378.1
	c0-3.8-3.1-6.8-6.9-6.9H255c-3.8,0-6.8,3.1-6.9,6.9v48.6c0,3.8,3.1,6.8,6.9,6.9h48.6c3.8,0,6.8-3.1,6.9-6.9L310.4,378.1z
	 M304.1,402.4c0,13.7-11.1,24.8-24.8,24.8c-13.7,0-24.8-11.1-24.8-24.8s11.1-24.8,24.8-24.8S304.1,388.7,304.1,402.4L304.1,402.4z
	 M302,402.4c0-12.6-10.2-22.7-22.7-22.7c-12.6,0-22.7,10.2-22.7,22.7c0,12.6,10.2,22.7,22.7,22.7c0,0,0,0,0,0
	C291.8,425.1,302,414.9,302,402.4L302,402.4z M283.4,410.4v6.8h-8.3v-6.8c2.2-2.3,5.9-2.4,8.2-0.1
	C283.3,410.3,283.4,410.3,283.4,410.4z"/>
<path class="st0" d="M303.6,436.8H255c-5.6,0-10.1-4.5-10.1-10.1v-48.6c0-5.6,4.5-10.1,10.1-10.1h48.6c5.6,0,10.1,4.5,10.1,10.1
	v48.6C313.7,432.3,309.1,436.8,303.6,436.8z M255,372.4c-3.1,0-5.6,2.6-5.7,5.7v48.6c0,3.1,2.6,5.6,5.7,5.7h48.6
	c3.1,0,5.6-2.6,5.7-5.7v-48.6c0-3.1-2.6-5.6-5.7-5.7H255z M279.3,428.4c-14.4,0-26-11.6-26-26s11.6-26,26-26s26,11.6,26,26
	C305.3,416.7,293.6,428.4,279.3,428.4L279.3,428.4z M279.3,380.8c-11.9,0-21.6,9.7-21.6,21.6c0,11.9,9.7,21.6,21.6,21.6
	c11.9,0,21.6-9.7,21.6-21.6C300.9,390.5,291.2,380.8,279.3,380.8C279.3,380.8,279.3,380.8,279.3,380.8L279.3,380.8z M284.6,418.3
	H274V410l0.2-0.3c2.6-2.8,7-3,9.8-0.4c0.1,0.1,0.3,0.2,0.4,0.4l0.2,0.3L284.6,418.3z M276.3,416h6v-5.1c-1.7-1.4-4.3-1.4-6,0V416z"
	/>
<path class="st0" d="M267,391.3h7.1v13.5H267V391.3z M269.1,402.7h2.9v-9.4h-2.9L269.1,402.7z M284.4,391.3h7.1v13.5h-7.1V391.3z
	 M286.5,402.7h2.9v-9.4h-2.9V402.7z"/>
<path class="st0" d="M291.9,405.1h-7.9v-14.3h7.9V405.1z M284.9,404.4h6.3v-12.7h-6.3V404.4z M274.5,405.1h-7.8v-14.3h7.8V405.1z
	 M267.4,404.4h6.3v-12.7h-6.3V404.4z M289.8,403.1h-3.7V393h3.7V403.1z M286.9,402.3h2.1v-8.6h-2.1V402.3z M272.4,403.1h-3.7V393
	h3.7V403.1z M269.5,402.3h2.1v-8.6h-2.1V402.3z M542.4,411.5c-0.5,0-0.9-0.4-0.9-1c0,0,0,0,0,0v-11.2h-0.3
	c-8.1-0.6-14.4-7.3-14.4-15.4v-14.5c0-0.6,0.4-1,1-1h3.9v-13.6c0.1-0.5,0.5-0.9,1-0.9c0.5,0,0.9,0.4,0.9,0.9c0,0,0,0,0,0v13.6h17.6
	v-13.6c0.1-0.5,0.5-0.9,1-0.9c0.5,0,0.8,0.4,0.9,0.9v13.6h4c0.5,0,0.9,0.4,0.9,0.9c0,0,0,0,0,0.1v14.5c-0.1,8.1-6.3,14.8-14.3,15.4
	h-0.3v11.2C543.4,411.1,543,411.5,542.4,411.5C542.5,411.5,542.4,411.5,542.4,411.5L542.4,411.5z M528.7,370.3v13.6
	c0.2,7.6,6.5,13.5,14.1,13.3c7.3-0.2,13.1-6.1,13.3-13.3v-13.6H528.7z"/>
<path class="st0" d="M542.4,412.7c-1.2,0-2.1-1-2.1-2.1c0,0,0,0,0,0v-10.1c-8.3-1-14.6-8.1-14.7-16.5v-14.5c0-1.2,1-2.2,2.1-2.2
	c0,0,0,0,0,0h2.7v-12.5c0-1.2,1-2.1,2.2-2.1c1.1,0,2.1,0.9,2.1,2.1v12.5H550v-12.5c0.1-1.2,1.1-2,2.3-2c1.1,0.1,1.9,0.9,2,2v12.5
	h2.8c1.2,0,2.1,1,2.1,2.1c0,0,0,0,0,0.1v14.5c-0.1,8.4-6.3,15.4-14.6,16.5v10.1C544.5,411.7,543.6,412.7,542.4,412.7
	C542.4,412.7,542.4,412.7,542.4,412.7z M529.9,371.5v12.5c0.2,6.9,6,12.4,12.9,12.2c6.7-0.2,12-5.5,12.2-12.2v-12.5H529.9z
	 M287,584.3v8.1c0,0.6-0.4,1-1,1h-54.8c-0.6,0-1-0.4-1-1v-8.1c0-2.1,1.7-3.7,3.8-3.7h1.7v-4.4c0-2,1.7-3.7,3.7-3.7h1.7v-15.2
	c0-9.6,7.8-17.4,17.5-17.4c9.6,0,17.4,7.8,17.4,17.4v15.2h1.7c2.1,0,3.8,1.6,3.8,3.7v4.4h1.7C285.3,580.6,287,582.2,287,584.3z
	 M230.2,559.9c0-0.6,0.4-1,1-1h5.5c0.6,0,1,0.4,1,1c0,0.5-0.5,1-1,1h-5.5C230.6,560.9,230.2,560.5,230.2,559.9z M285,584.3
	c0-0.9-0.8-1.7-1.7-1.7h-49.4c-0.9,0-1.7,0.8-1.7,1.7v7.1H285V584.3z M236.7,540.6c-0.4-0.4-0.4-1,0-1.4c0.4-0.4,1-0.4,1.4,0
	l3.8,3.8c0.4,0.4,0.4,1.1,0,1.5c-0.2,0.2-0.4,0.3-0.7,0.3c-0.3,0-0.5-0.1-0.7-0.3L236.7,540.6z M237.8,580.6h41.7v-4.4
	c0-0.9-0.8-1.7-1.7-1.7h-38.3c-0.9,0-1.7,0.7-1.7,1.7c0,0,0,0,0,0L237.8,580.6z M243.2,572.4H274v-15.2c-0.2-8.5-7.3-15.3-15.8-15.1
	c-8.2,0.2-14.8,6.8-15.1,15.1L243.2,572.4z M259.6,546.3c0,0.6-0.4,1-1,1c-5.5,0-9.9,4.4-9.9,9.8c0,0,0,0.1,0,0.1c0,0.5-0.5,1-1,1
	c-0.6,0-1-0.4-1-1c0-6.6,5.3-11.9,11.8-11.9c0,0,0.1,0,0.1,0C259.2,545.3,259.6,545.7,259.6,546.3L259.6,546.3z M257.6,535.8v-5.4
	c0-0.6,0.4-1,1-1s1,0.4,1,1v5.4c0,0.6-0.4,1-1,1S257.6,536.4,257.6,535.8z M273.4,542.5c-0.4-0.4-0.4-1,0-1.4l3.9-3.8
	c0.4-0.3,1.1-0.2,1.4,0.2c0.3,0.4,0.3,0.8,0,1.2l-3.9,3.9c-0.2,0.1-0.5,0.2-0.7,0.2C273.8,542.8,273.5,542.7,273.4,542.5
	L273.4,542.5z M279.5,559.9c0-0.6,0.4-1,1-1h5.5c0.5,0,1,0.4,1,0.9c0,0,0,0.1,0,0.1c0,0.6-0.4,1-1,1h-5.5
	C279.9,560.9,279.5,560.5,279.5,559.9L279.5,559.9z"/>
<path class="st0" d="M286,594.6h-54.8c-1.2,0-2.2-1-2.2-2.2v-8.1c0-2.7,2.3-4.9,5-4.9c0,0,0,0,0,0h0.5v-3.2c0-2.7,2.2-4.8,4.9-4.9
	h0.6v-14.1c0.2-10.3,8.8-18.4,19-18.2c9.9,0.2,18,8.2,18.2,18.2v14.1h0.5c2.7,0,5,2.1,5,4.9c0,0,0,0,0,0v3.2h0.5
	c2.7,0.1,4.8,2.2,4.9,4.9v8.1c0,1.2-0.9,2.1-2,2.2C286.1,594.6,286.1,594.6,286,594.6L286,594.6z M233.4,590.3h50.4v-6
	c0-0.3-0.2-0.5-0.5-0.5h-49.4c-0.3,0-0.5,0.3-0.5,0.5L233.4,590.3z M238.9,579.4h39.4v-3.2c0-0.3-0.3-0.5-0.5-0.5h-38.3
	c-0.3,0-0.5,0.2-0.5,0.5c0,0,0,0,0,0L238.9,579.4z M244.3,571.3h28.6v-14.1c0-7.9-6.4-14.3-14.3-14.3c-7.9,0-14.3,6.4-14.3,14.3
	L244.3,571.3z M286,562.1h-5.5c-1.2,0-2.1-1-2.2-2.2c0-1.2,1-2.2,2.2-2.2h5.5c1.2,0,2.1,0.9,2.2,2.1c0,0,0,0.1,0,0.1
	C288.2,561.1,287.2,562.1,286,562.1z M236.8,562.1h-5.5c-1.2,0-2.2-1-2.2-2.2c0-1.2,0.9-2.1,2.1-2.2c0,0,0.1,0,0.1,0h5.5
	c1.2,0,2.2,1,2.2,2.2C238.9,561.1,237.9,562.1,236.8,562.1L236.8,562.1z M247.7,559.4c-1.2,0-2.2-1-2.2-2.2
	c0-7.2,5.9-13.1,13.1-13.1c1.2,0,2.2,1,2.2,2.2c0,1.2-0.9,2.1-2,2.2c0,0-0.1,0-0.1,0c-4.8-0.1-8.7,3.8-8.8,8.6c0,0.1,0,0.1,0,0.2
	C249.8,558.4,248.8,559.4,247.7,559.4L247.7,559.4z M241.1,546c-0.6,0-1.1-0.2-1.5-0.7l-3.8-3.9c-0.4-0.4-0.6-0.9-0.6-1.5
	c0-0.6,0.2-1.1,0.6-1.5c0.9-0.8,2.2-0.8,3.1,0l3.8,3.8c0.4,0.4,0.7,1,0.6,1.6c0,0.6-0.2,1.2-0.6,1.6
	C242.3,545.8,241.7,546,241.1,546z M274,544c-0.6,0-1.1-0.2-1.5-0.7c-0.8-0.8-0.8-2.2,0-3l3.9-3.8c0.8-0.8,2.2-0.8,3.1,0
	s0.8,2.2,0,3.1l-4.2,4.1C274.9,543.9,274.4,544,274,544L274,544z M258.6,538c-1.2,0-2.2-1-2.2-2.2v-5.4c0-1.2,0.9-2.1,2.1-2.2
	c0,0,0.1,0,0.1,0c1.2,0,2.1,0.9,2.2,2c0,0,0,0.1,0,0.1v5.4C260.7,537,259.8,538,258.6,538z M120.3,547.4c9.1,0,16.4-7.4,16.4-16.4
	c0-9.1-7.4-16.4-16.4-16.4s-16.4,7.4-16.4,16.4c0,0,0,0,0,0C103.9,540.1,111.3,547.4,120.3,547.4z M120.3,520c6.1,0,11,4.9,11,10.9
	s-4.9,11-10.9,11c-6.1,0-11-4.9-11-10.9c0,0,0,0,0,0C109.4,525,114.3,520,120.3,520L120.3,520z M75.4,541.9l10.2,10.2
	c0.5,0.5,1.2,0.8,1.9,0.8c0.4,0,0.7-0.1,1.1-0.2c1-0.4,1.7-1.4,1.7-2.5v-8.2c4.5,0,8.2-3.7,8.2-8.2v-11c0-4.5-3.7-8.2-8.2-8.2H62.8
	c-4.5,0-8.2,3.7-8.2,8.2v11c0,4.5,3.7,8.2,8.2,8.2H75.4z M60.1,533.7v-11c0-1.5,1.2-2.7,2.7-2.7h27.4c1.5,0,2.8,1.2,2.8,2.7
	c0,0,0,0,0,0.1v11c0,1.5-1.2,2.7-2.7,2.7h-2.8c-1.5,0-2.7,1.2-2.7,2.7v4.3l-6.3-6.3c-0.5-0.5-1.2-0.8-1.9-0.8H62.8
	C61.3,536.5,60.1,535.3,60.1,533.7C60.1,533.8,60.1,533.7,60.1,533.7L60.1,533.7z"/>
<path class="st0" d="M65.6,525.5h21.9v5.5H65.6V525.5z M194.3,503.6h-35.6c-7.6,0-13.7,6.1-13.7,13.7v31.6l-14.1,4h-27
	c-7.6,0-13.7,6.1-13.7,13.7v21.9h-11v5.5h79.4v-5.5h-19.1v-17.4l5.7-2.4c1,6.7,6.7,11.6,13.5,11.6h35.6c7.6,0,13.7-6.1,13.7-13.7
	v-49.3C208,509.7,201.9,503.6,194.3,503.6L194.3,503.6z M135.7,566.8c-1,0.4-1.7,1.4-1.7,2.5v19.2h-10.9v-19.2h2.7v-5.5h-11v5.5h2.7
	v19.2h-11v-19.2h-5.5v19.2h-5.4v-21.9c0-4.5,3.7-8.2,8.2-8.2h27.4c0.3,0,0.5,0,0.8-0.1l19.2-5.5c0.6-0.2,1.2-0.6,1.5-1.1l9.1-13.7
	l4.2,4.2l-11.9,16.7L135.7,566.8z M202.5,566.6c0,4.5-3.7,8.2-8.2,8.2h-35.6c-4.5,0-8.2-3.7-8.2-8.2h-0.4l6.9-3
	c0.5-0.2,0.9-0.5,1.1-0.9l13.7-19.2c0.8-1.1,0.7-2.6-0.3-3.5l-8.2-8.2c-0.6-0.6-1.4-0.9-2.2-0.8c-0.8,0.1-1.5,0.5-2,1.2l-8.7,13
	v-27.9c0-4.5,3.7-8.2,8.2-8.2h35.6c4.5,0,8.2,3.7,8.2,8.2L202.5,566.6z"/>
<path class="st0" d="M158.7,517.3h35.6v5.5h-35.6V517.3z M172.4,528.2h21.9v5.5h-21.9V528.2z M177.9,539.2h16.4v5.5h-16.4
	L177.9,539.2z M172.4,550.2h21.9v5.5h-21.9V550.2z M164.2,561.1h30.1v5.5h-30.1V561.1z"/>
<g>
	<path class="st1" d="M148,642c-0.6-6-6.1-11-13.8-12.4c-0.5-0.1-1.1,0.1-1.5,0.5l-2.7,2.8l-2.8-2.8c-0.4-0.4-0.9-0.5-1.5-0.5
		c-7.7,1.4-13.2,6.4-13.8,12.4c-0.1,0.8,0.4,1.5,1.2,1.8c11,3.1,22.7,3.1,33.7,0C147.6,643.5,148.1,642.8,148,642z M130,642.8
		c-4.9,0.1-9.8-0.5-14.5-1.8c1-3.6,4.9-6.7,9.9-7.9l3.3,3.3c0.3,0.3,0.7,0.5,1.2,0.5c0.4,0,0.9-0.2,1.2-0.5l3.3-3.3
		c5,1.2,8.9,4.2,9.9,7.9C139.7,642.2,134.8,642.8,130,642.8L130,642.8z"/>
	<path class="st1" d="M130,646.7c-5.8,0.1-11.5-0.7-17-2.3c-1-0.3-1.7-1.3-1.6-2.4c0.6-6.3,6.3-11.4,14.3-12.9
		c0.7-0.1,1.5,0.1,2,0.6l2.4,2.4l2.4-2.4c0.5-0.5,1.3-0.8,2-0.6c8,1.4,13.7,6.6,14.3,12.9c0.1,1.1-0.6,2.1-1.6,2.4
		C141.5,646,135.8,646.7,130,646.7z M126,630.2h-0.2c-7.4,1.3-12.8,6.1-13.3,11.8c0,0.5,0.3,1,0.8,1.2c5.4,1.6,11,2.4,16.7,2.3
		c5.6,0.1,11.3-0.7,16.7-2.3c0.5-0.2,0.8-0.6,0.8-1.1c-0.5-5.7-5.9-10.5-13.3-11.8c-0.4-0.1-0.7,0-1,0.3l-3.1,3.2l-3.2-3.2
		C126.6,630.3,126.3,630.2,126,630.2L126,630.2z M130,643.4c-4.9,0-9.8-0.6-14.6-1.8l-0.6-0.2l0.2-0.6c1.1-3.9,5.1-7,10.3-8.3
		l0.3-0.1l3.5,3.6c0.4,0.4,1.1,0.4,1.5,0l3.6-3.6l0.3,0.1c5.3,1.2,9.2,4.4,10.3,8.3l0.2,0.6l-0.6,0.2
		C139.8,642.8,134.9,643.4,130,643.4L130,643.4z M116.3,640.6c9,2.1,18.3,2.1,27.3,0c-1.2-3.1-4.6-5.7-9-6.8l-3.1,3.1
		c-0.9,0.9-2.3,0.9-3.2,0l-3.1-3.1C120.9,634.9,117.5,637.5,116.3,640.6L116.3,640.6z M120.3,616.9c0,5.3,4.3,9.6,9.6,9.6
		c5.3,0,9.6-4.3,9.6-9.6c0-5.3-4.3-9.6-9.6-9.6C124.7,607.3,120.3,611.6,120.3,616.9C120.3,616.9,120.3,616.9,120.3,616.9z
		 M130,623.1c-3.5,0-6.3-2.8-6.3-6.3c0-3.5,2.8-6.3,6.3-6.3c3.5,0,6.3,2.8,6.3,6.3C136.2,620.3,133.4,623.1,130,623.1L130,623.1z"/>
	<path class="st1" d="M130,627.1c-5.6,0-10.2-4.6-10.2-10.2c0-5.6,4.6-10.2,10.2-10.2c5.6,0,10.2,4.6,10.2,10.2
		C140.2,622.5,135.6,627.1,130,627.1z M130,607.8c-5,0-9,4-9,9s4,9,9,9s9-4,9-9S135,607.8,130,607.8z M130,623.7
		c-3.8,0-6.8-3.1-6.8-6.9c0-3.8,3.1-6.8,6.9-6.8c3.8,0,6.8,3.1,6.8,6.9l0,0C136.8,620.7,133.8,623.7,130,623.7z M130,611.2
		c-3.1,0-5.7,2.5-5.7,5.7c0,3.1,2.5,5.7,5.7,5.7s5.7-2.5,5.7-5.7l0,0C135.7,613.7,133.1,611.2,130,611.2z M686.6,436
		c0,1.5-0.8,2.9-2.1,3.6l-8.8,5.1c-0.6,0.4-1.4,0.6-2.1,0.6c-0.7,0-1.5-0.2-2.1-0.6c-1.3-0.7-2.1-2.1-2.1-3.6v-10.2
		c0-1.5,0.8-2.9,2.1-3.6c1.3-0.8,2.9-0.8,4.2,0l8.8,5C685.8,433,686.7,434.5,686.6,436z M684.7,436c0-0.8-0.4-1.5-1.1-1.9
		c0,0-8.4-4.9-8.8-5.1c-0.7-0.4-1.6-0.4-2.3,0c-0.7,0.4-1.1,1.2-1.1,2v10.2c0,0.8,0.5,1.5,1.1,1.9c0.7,0.5,1.6,0.5,2.3,0l8.8-5
		C684.3,437.6,684.7,436.8,684.7,436z"/>
	<path class="st1" d="M673.7,446c-2.8,0-5-2.2-5-5v-10.1c0-2.8,2.3-5,5.1-4.9c0.8,0,1.6,0.2,2.4,0.6l8.8,5c2.4,1.4,3.1,4.5,1.7,6.9
		c-0.4,0.7-1,1.3-1.7,1.7l-8.8,5.1C675.4,445.8,674.5,446,673.7,446L673.7,446z M673.7,427.5c-0.6,0-1.2,0.2-1.7,0.5
		c-1.1,0.6-1.7,1.8-1.7,3v10.2c0,1.2,0.7,2.2,1.7,2.8c1,0.7,2.4,0.7,3.4,0l8.8-5.1c1.6-0.9,2.2-3,1.3-4.6c-0.3-0.5-0.7-1-1.3-1.3
		l-8.8-5C674.9,427.7,674.3,427.5,673.7,427.5z M673.7,444.1c-1.7,0-3-1.3-3.1-3v-10.2c0-1.1,0.6-2.1,1.5-2.6
		c0.9-0.6,2.1-0.6,3.1-0.1c0.5,0.3,5.5,3.3,8.8,5.2c0.9,0.5,1.5,1.5,1.5,2.6c0,1.1-0.6,2.2-1.6,2.7l-8.7,5
		C674.8,444,674.2,444.1,673.7,444.1L673.7,444.1z M673.7,429.4c-0.3,0-0.5,0.1-0.8,0.2c-0.4,0.3-0.7,0.8-0.7,1.3v10.2
		c0,0.5,0.3,1,0.7,1.2c0.4,0.3,1,0.3,1.5,0l8.8-5.1c0.5-0.3,0.8-0.8,0.8-1.3c0-0.5-0.3-1-0.7-1.2c-2-1.2-8.5-4.9-8.9-5.2
		C674.1,429.4,673.9,429.4,673.7,429.4z M520.4,653.6h-5.5v-8.7c0-1,0.5-1.9,1.4-2.4c4.9-2.7,7.3-8.3,7.3-17v-38.3
		c0.2-1.3-0.7-2.5-2-2.7c-1.3-0.2-2.5,0.7-2.7,2c0,0.2,0,0.5,0,0.8c-0.1,1.5-1.4,2.7-2.9,2.6c-1.4-0.1-2.5-1.2-2.6-2.6v-7
		c0.2-1.3-0.7-2.5-2-2.7c-1.3-0.2-2.5,0.7-2.7,2c0,0.2,0,0.5,0,0.8c0.1,1.5-1.1,2.8-2.6,2.9s-2.8-1.1-2.9-2.6c0-0.1,0-0.2,0-0.3
		c0.2-1.3-0.7-2.5-2-2.7c-1.3-0.2-2.5,0.7-2.7,2c0,0.2,0,0.5,0,0.8v5.1c0.1,1.5-1.1,2.8-2.6,2.9s-2.8-1.1-2.9-2.6c0-0.1,0-0.2,0-0.3
		c0.2-1.3-0.7-2.5-2-2.7c-1.3-0.2-2.5,0.7-2.7,2c0,0.2,0,0.5,0,0.8v37.3h-5.5v-37.3c-0.1-4.4,3.4-8.1,7.8-8.3c0.9,0,1.9,0.2,2.7,0.5
		c1-3.3,4-5.6,7.4-5.6c1.9,0,3.7,0.7,5.1,2c1.4-1.3,3.2-2,5.1-2c4.1,0.1,7.5,3.3,7.8,7.4c0.8-0.3,1.6-0.4,2.4-0.4
		c4.4,0.1,7.9,3.8,7.8,8.3v38.3c0,9.9-2.9,17-8.7,20.9V653.6z"/>
	<path class="st1" d="M491.4,653.6h-5.5v-7.1c-6.4-4-13.2-11.6-13.2-20.9v-18.1c0-4.5,3.4-8.3,7.6-8.5c2.1-0.1,4.1,0.7,5.5,2.2
		c1.6,1.6,2.5,3.8,2.5,6.1h-5.5c0-0.8-0.3-1.6-0.9-2.1c-0.4-0.4-1-0.6-1.5-0.6c-1.2,0-2.3,1.4-2.3,3v18.1c0,7.2,5.9,13.7,11.8,17
		c0.9,0.5,1.4,1.4,1.4,2.4L491.4,653.6z M493.1,585.3h5.5v26.4h-5.5V585.3z M513.4,587.2h5.5v24.5h-5.5V587.2z M503.2,580.2h5.5
		v31.6h-5.5V580.2z M331.4,653.6h-5.5v-7.1c-5.7-3.9-8.6-11-8.6-20.9v-38.3c-0.1-4.4,3.4-8.1,7.8-8.3c0.8,0,1.6,0.1,2.4,0.4
		c0.3-4.1,3.7-7.3,7.8-7.4c1.9,0,3.7,0.7,5.1,2c1.4-1.3,3.2-2,5.1-2c3.4,0.1,6.5,2.3,7.4,5.6c0.9-0.3,1.8-0.5,2.7-0.5
		c4.4,0.1,7.9,3.8,7.8,8.3v37.3h-5.5v-37.3c0.2-1.3-0.7-2.5-2-2.7c-1.3-0.2-2.5,0.7-2.7,2c0,0.2,0,0.5,0,0.8
		c0.1,1.5-1.1,2.8-2.6,2.9s-2.8-1.1-2.9-2.6c0-0.1,0-0.2,0-0.3v-5.1c0.2-1.3-0.7-2.5-2-2.7c-1.3-0.2-2.5,0.7-2.7,2
		c0,0.2,0,0.5,0,0.8c0.1,1.5-1.1,2.8-2.6,2.9s-2.8-1.1-2.9-2.6c0-0.1,0-0.2,0-0.3c0.2-1.3-0.7-2.5-2-2.7c-1.3-0.2-2.5,0.7-2.7,2
		c0,0.2,0,0.5,0,0.8v7c-0.1,1.5-1.4,2.7-2.9,2.6c-1.4-0.1-2.5-1.2-2.6-2.6c0.2-1.3-0.7-2.5-2-2.7c-1.3-0.2-2.5,0.7-2.7,2
		c0,0.2,0,0.5,0,0.8v38.3c0,8.7,2.4,14.3,7.3,17c0.9,0.5,1.4,1.4,1.4,2.4L331.4,653.6z"/>
	<path class="st1" d="M354.9,653.6v-8.7c0-1,0.5-1.9,1.4-2.4c5.9-3.3,11.8-9.8,11.8-17v-18.1c0-1.6-1-2.9-2.3-3
		c-0.6,0-1.1,0.2-1.5,0.6c-0.6,0.6-0.9,1.3-0.9,2.1h-5.5c0-2.3,0.9-4.5,2.5-6.1c1.5-1.4,3.5-2.2,5.5-2.1c4.2,0.1,7.6,3.9,7.6,8.5
		v18.1c0,9.4-6.8,16.9-13.2,20.9v7.1L354.9,653.6z M347.8,585.3h5.5v26.4h-5.5V585.3z M327.4,587.2h5.5v24.5h-5.5V587.2z
		 M337.6,580.2h5.5v31.6h-5.5V580.2z M432.5,40c-4.6-13.5,2.7-28.2,16.2-32.8s28.2,2.7,32.8,16.2c0.9,2.7,1.4,5.5,1.4,8.3
		c0,2-0.2,4-0.7,6l-5.3-1.3c0.4-1.6,0.6-3.2,0.6-4.8c0-11.3-9.1-20.4-20.4-20.4c-11.3,0-20.4,9.1-20.4,20.4c0,2.2,0.4,4.4,1.1,6.5
		L432.5,40z"/>
	<path class="st1" d="M478.1,61h-43.5c-9.2,0-16.6-7.4-16.6-16.6s7.4-16.6,16.6-16.6v5.5c-6.1,0-11.1,5-11.1,11.1s5,11.1,11.1,11.1
		l0,0h43.5c4.3,0,7.9-3.5,7.9-7.8c0-4.3-3.5-7.9-7.8-7.9c-2.1,0-4.1,0.8-5.6,2.3l-3.9-3.9c5.2-5.2,13.7-5.2,18.9,0
		c5.2,5.2,5.2,13.7,0,18.9C485,59.6,481.6,61,478.1,61z M192.5,143.7H187v-12.4l-5.1-5.1h-36.5v7.5h-5.5v-13h44.2l8.3,8.3V143.7z"/>
	<path class="st1" d="M189.8,132.8h-9.5v-9.5h5.5v4h4V132.8z M704.2,353.7h-55.8c-1.1,0.1-2-0.7-2.1-1.8c-0.1-1.1,0.7-2,1.8-2.1
		c0.1,0,0.2,0,0.3,0H703c3.4-6.4,0.9-14.3-5.5-17.6c-1.9-1-4-1.5-6.1-1.5c-1.1,0-1.9-0.9-1.9-2c0-1.1,0.9-1.9,1.9-1.9
		c9.4,0.1,17,7.7,16.9,17.1c0,3.1-0.9,6.2-2.6,8.9C705.4,353.3,704.8,353.7,704.2,353.7L704.2,353.7z"/>
	<path class="st1" d="M697.1,331.8H697c-1.1-0.1-1.8-1-1.8-2.1v-1c0-7.2-5.9-13.1-13.1-13.1c-2.3,0-4.6,0.6-6.5,1.8
		c-0.9,0.6-2.1,0.2-2.7-0.7s-0.2-2.1,0.7-2.7c8.1-4.7,18.5-1.9,23.2,6.3c1.5,2.6,2.2,5.4,2.3,8.4c0,0.4,0,0.8,0,1.3
		C698.9,330.9,698.1,331.7,697.1,331.8L697.1,331.8z"/>
	<path class="st1" d="M678,316.2c-0.8,0-1.6-0.5-1.8-1.3c-1.2-3.3-4.8-5.1-8.2-3.9c-0.7,0.3-1.4,0.6-2,1.1c-0.7,0.6-1.2,1.2-1.6,2
		c-0.5,1-1.6,1.3-2.6,0.9c0,0,0,0,0,0c-0.9-0.5-1.3-1.7-0.9-2.6c2.6-5.1,8.8-7.1,13.9-4.5c2.4,1.2,4.2,3.3,5,5.7
		c0.3,1-0.2,2.1-1.2,2.5C678.4,316.2,678.2,316.2,678,316.2z M629.7,330.4c-0.9,0-1.6-0.6-1.9-1.4c-0.3-1.1-0.5-2.2-0.5-3.3
		c0.1-6.6,5.5-11.9,12.1-11.9c3.8,0,7.3,1.8,9.5,4.9c0.6,0.9,0.3,2.1-0.6,2.7c-0.8,0.5-1.9,0.3-2.5-0.4c-2.6-3.6-7.6-4.4-11.3-1.8
		c-2.1,1.5-3.3,3.9-3.3,6.5c0,0.8,0.1,1.5,0.3,2.2c0.3,1-0.3,2.1-1.3,2.4c0,0,0,0,0,0C630.1,330.4,629.9,330.4,629.7,330.4z"/>
	<path class="st1" d="M643.4,318.6c-1.1,0-1.9-0.9-1.9-1.9c0-0.3,0.1-0.6,0.2-0.9c4.3-8.4,14.5-11.7,22.9-7.4
		c0.4,0.2,0.8,0.5,1.2,0.7c0.9,0.5,1.3,1.7,0.7,2.7s-1.7,1.3-2.7,0.7c-0.1,0-0.1-0.1-0.2-0.1c-6.1-3.8-14.2-1.9-18,4.2
		c-0.2,0.3-0.4,0.7-0.6,1C644.8,318.1,644.2,318.6,643.4,318.6z M685.8,346.4c-0.2,0-0.4,0-0.6-0.1c-1-0.4-1.6-1.4-1.3-2.5
		c0.9-2.7-0.6-5.6-3.4-6.5c-0.5-0.2-1-0.2-1.5-0.2c-1.1,0.1-2-0.7-2.1-1.8c-0.1-1.1,0.7-2,1.8-2.1c0.1,0,0.2,0,0.3,0c5,0,9,4,9,9
		c0,0.9-0.1,1.9-0.4,2.8C687.4,345.8,686.6,346.4,685.8,346.4L685.8,346.4z M660.8,344.9c-0.5,0-1-0.2-1.4-0.6
		c-3.3-3.3-3.3-8.7,0-12c0.8-0.7,2-0.6,2.7,0.2c0.6,0.7,0.6,1.8,0,2.5c-1.8,1.8-1.8,4.7,0,6.5c0.8,0.8,0.8,2,0,2.7c0,0,0,0,0,0
		C661.8,344.6,661.3,344.8,660.8,344.9L660.8,344.9z"/>
	<path class="st1" d="M681.8,337.7c-0.5,0-1-0.2-1.4-0.6c-0.7-0.8-0.7-2,0-2.8c1-1,1.5-2.3,1.5-3.6c0.2-1.1,1.3-1.8,2.4-1.5
		c0.7,0.2,1.3,0.8,1.5,1.5c0,2.4-0.9,4.7-2.6,6.4C682.9,337.5,682.4,337.7,681.8,337.7z M675.5,326.5c-1.1,0-1.9-0.9-1.9-2
		c0-0.5,0.2-1,0.6-1.4c2-2,4.6-3.1,7.4-3.1c1.1-0.1,2,0.7,2.1,1.8c0.1,1.1-0.7,2-1.8,2.1c-0.1,0-0.2,0-0.3,0c-1.7,0-3.4,0.7-4.6,1.9
		C676.5,326.3,676,326.5,675.5,326.5L675.5,326.5z M674.1,347.5c-1.1-0.1-1.9-1.1-1.8-2.2c0.1-0.6,0.4-1.2,1-1.5
		c0.4-0.2,0.8-0.5,1.1-0.8c0.6-0.9,1.9-1.1,2.7-0.4c0.9,0.6,1.1,1.9,0.4,2.7c0,0.1-0.1,0.1-0.2,0.2c-0.7,0.8-1.5,1.5-2.5,1.9
		C674.7,347.4,674.4,347.5,674.1,347.5z M670.9,340.4c-0.5,0-1-0.2-1.4-0.6c-2.3-2.3-3.2-5.7-2.2-8.8c0.4-1,1.5-1.5,2.5-1.1
		c0.9,0.3,1.5,1.3,1.2,2.3c-0.5,1.7-0.1,3.6,1.2,4.9c0.8,0.8,0.7,2,0,2.8C671.9,340.2,671.4,340.4,670.9,340.4L670.9,340.4z
		 M652.5,329.2c-0.2,0-0.4,0-0.6-0.1c-1-0.3-1.6-1.4-1.2-2.5c0,0,0,0,0,0c1.9-5.5,7.8-8.4,13.3-6.5c1,0.3,1.6,1.4,1.2,2.5
		c-0.3,1-1.4,1.6-2.5,1.2l0,0c-3.4-1.2-7.2,0.7-8.3,4.1C654.1,328.7,653.3,329.2,652.5,329.2z M642.2,337.7c-0.6,0-1.2-0.3-1.5-0.7
		c-2.2-2.7-2-8,0.3-9.9c0.8-0.7,2.1-0.6,2.8,0.2s0.6,2.1-0.2,2.8c-0.7,1.5-0.6,3.1,0.3,4.5c0.6,0.8,0.5,2.1-0.3,2.7
		C643,337.5,642.6,337.7,642.2,337.7z M686.1,344.2c-1.1,0-1.9-0.9-1.9-2c0-0.5,0.2-1,0.6-1.4c3.2-3.2,8.4-3.5,11.9-0.7
		c0.8,0.7,1,1.9,0.3,2.7c-0.7,0.8-1.9,1-2.7,0.3c-2-1.6-5-1.4-6.8,0.4C687.1,344,686.6,344.2,686.1,344.2z M662.8,346.6
		c-0.6,0-1.1-0.3-1.5-0.7c-0.9-1.1-2.2-1.7-3.5-1.8c-3.3,0-6.4-2-7.8-5c-0.4-1,0.1-2.1,1.1-2.5c0.9-0.4,2,0,2.4,0.9
		c0.7,1.7,2.4,2.7,4.2,2.7c2.6,0,5,1.2,6.6,3.2c0.6,0.8,0.5,2.1-0.3,2.7C663.7,346.4,663.2,346.6,662.8,346.6L662.8,346.6z"/>
	<path class="st2" d="M682.8,608.6l8.6,1.4v8.6l-8.6,1.5c-0.4,1.7-1.1,3.3-2,4.8l5.1,7l-6,6l-7.2-4.9c-1.5,0.8-3.2,1.5-4.8,2
		l-1.5,8.5h-8.6l-1.4-8.5c-1.7-0.5-3.3-1.1-4.8-2l-7.1,5l-6-6l5-7c-0.9-1.5-1.6-3.1-2-4.8l-8.5-1.6V610l8.5-1.4
		c0.4-1.7,1.1-3.4,2-4.9l-4.9-7l6-6l7,5c1.5-0.9,3.1-1.5,4.8-2l1.4-8.5h8.6l1.5,8.6c1.7,0.4,3.3,1.1,4.8,2l7-5.1l6,6l-5,7.1
		C681.6,605.3,682.3,606.9,682.8,608.6L682.8,608.6z M689.6,611.5l-8.2-1.4l-0.2-0.5c-0.5-1.9-1.2-3.7-2.2-5.3l-0.3-0.5l4.8-6.9
		l-3.9-3.9l-6.8,4.8l-0.5-0.3c-1.7-1-3.5-1.7-5.4-2.2l-0.5-0.2l-1.4-8.2h-5.6l-1.4,8.2l-0.5,0.1c-1.9,0.5-3.7,1.2-5.4,2.3l-0.5,0.3
		l-6.8-4.8l-4,3.9l4.8,6.8l-0.3,0.5c-1,1.7-1.8,3.5-2.3,5.4l-0.1,0.5l-8.2,1.4v5.7l8.1,1.5l0.2,0.5c0.5,1.9,1.2,3.7,2.2,5.4l0.4,0.5
		l-4.8,6.8l4,4l6.8-4.8l0.5,0.4c1.7,1,3.5,1.7,5.4,2.2l0.5,0.1l1.4,8.2h5.7l1.5-8.2l0.5-0.1c1.9-0.5,3.7-1.3,5.4-2.3l0.5-0.3
		l6.9,4.8l4-3.9l-5-6.7l0.3-0.5c1-1.6,1.7-3.4,2.2-5.3l0.2-0.5l8.2-1.5L689.6,611.5z M672.5,614.4c0,5.7-4.6,10.3-10.3,10.2
		c-5.7,0-10.3-4.6-10.2-10.3c0-5.7,4.6-10.3,10.3-10.2c0,0,0,0,0,0c5.6,0,10.2,4.6,10.2,10.2C672.5,614.3,672.5,614.3,672.5,614.4z
		 M670.7,614.3c0-4.7-3.9-8.5-8.6-8.5c-4.7,0-8.5,3.9-8.5,8.6c0,4.7,3.9,8.5,8.6,8.5C666.9,622.9,670.7,619,670.7,614.3
		C670.7,614.3,670.7,614.3,670.7,614.3z"/>
	<path class="st1" d="M667.6,644.9h-10.9l-1.4-8.8c-1.2-0.4-2.4-0.9-3.5-1.5l-7.4,5.1l-7.7-7.7l5.2-7.3c-0.6-1.1-1.1-2.3-1.5-3.6
		l-8.8-1.5v-10.9l8.8-1.4c0.4-1.3,0.9-2.5,1.5-3.6l-5.1-7.3l7.7-7.7l7.3,5.2c1.1-0.6,2.3-1.1,3.5-1.5l1.4-8.8h10.9l1.5,8.9
		c1.2,0.4,2.4,0.9,3.5,1.5l7.3-5.3l7.7,7.7l-5.2,7.4c0.6,1.1,1.1,2.3,1.5,3.5l8.9,1.4v10.9l-8.9,1.5c-0.4,1.2-0.9,2.4-1.5,3.5
		l5.3,7.3l-7.7,7.7l-7.4-5.1c-1.1,0.6-2.3,1-3.5,1.5L667.6,644.9z M660.4,640.4h3.4l1.4-8l1.5-0.3c1.7-0.5,3.4-1.2,4.9-2.1l1.2-0.7
		l6.7,4.6l2.4-2.3l-4.7-6.5l0.7-1.3c0.9-1.6,1.6-3.2,2.1-5l0.5-1.4l7.9-1.4v-3.4l-7.9-1.3l-0.5-1.3c-0.4-1.8-1.1-3.4-2.1-5l-0.7-1.2
		l4.6-6.7l-2.3-2.3l-6.5,4.7l-1.2-0.7c-1.6-0.9-3.2-1.6-5-2l-1.4-0.5l-1.4-7.9h-3.3l-1.3,8l-1.5,0.2c-1.7,0.4-3.4,1.2-4.9,2.1
		l-1.2,0.7l-6.6-4.7l-2.4,2.2l4.6,6.6l-0.7,1.2c-1,1.5-1.7,3.2-2.1,5l-0.2,1.4l-8,1.3v3.4l7.8,1.4l0.4,1.3c0.4,1.8,1.1,3.5,2.1,5.1
		l0.9,1.1l-4.8,6.7l2.4,2.4l6.7-4.8l1.3,1c1.5,0.8,3.2,1.5,4.8,1.9l1.4,0.2L660.4,640.4z M662.2,626c-6.4,0-11.7-5.2-11.7-11.6
		s5.2-11.7,11.6-11.7s11.7,5.2,11.7,11.6c0,0,0,0.1,0,0.1C673.8,620.8,668.6,626,662.2,626z M662.2,607.2c-4,0-7.2,3.2-7.2,7.2
		c0,4,3.2,7.2,7.2,7.2c4,0,7.2-3.2,7.2-7.2c0,0,0-0.1,0-0.1C669.3,610.4,666.1,607.2,662.2,607.2L662.2,607.2z M136.1,177l8.5-9.4
		l-7.4-8.2l1.6-1.5l7.6,8.5l1.2,1.1l-9.9,11L136.1,177L136.1,177z"/>
	<path class="st1" d="M137.8,180.1l-3.3-3.1l8.5-9.5l-7.5-8.2l3.3-3.1l8.4,9.4l1.9,1.8L137.8,180.1z M154.5,175.9h19.1v2.1h-19.1
		V175.9z"/>
	<path class="st1" d="M153.4,174.7h21.4v4.5h-21.4V174.7z M432.5,767.4H427v-15l0.6-0.8c5.6-6.6,4.7-16.5-1.9-22
		c-6.6-5.6-16.5-4.7-22,1.9c-2.4,2.8-3.7,6.4-3.7,10.1l0,0.5l-1.2,6.5l2.4,0.3l1.5,10.3c0,1.1,0.9,1.9,1.9,1.9h9.6v6.2h-5.5v-0.7
		h-4.1c-4,0-7.3-3.2-7.4-7.2l-0.9-5.6c-2.1-0.3-3.6-2.3-3.3-4.4c0-0.1,0-0.1,0-0.2l1.5-8c0.2-11.7,9.7-21,21.4-20.8
		s21,9.7,20.8,21.4c-0.1,4.5-1.6,8.9-4.3,12.5L432.5,767.4z"/>
</g>
</svg>
