<svg style="fill: #363636;width: 100px;" xmlns="http://www.w3.org/2000/svg" width="202" height="187" viewBox="0 0 202 187">
                              <path d="M49,0V60.51H20.22v121H.06v5.77H201.72V181.5H181.56v-121H152.75V0H49ZM54.8,5.77H147V181.5H135.47V129.66H66.32V181.5H54.8ZM75,14.41v23h51.86v-23H75Zm5.77,5.76h40.33V31.69H80.73ZM75,46.11v23h51.86v-23H75Zm5.77,5.75h40.33V63.39H80.73ZM26,66.27H49V181.5H26Zm126.76,0H175.8V181.5H152.75ZM75,77.8v23h51.86v-23H75Zm5.77,5.76h40.33V95.08H80.73Zm-8.65,51.86H98v46.09H72.08Zm31.7,0H129.7v46.09H103.78Z"></path>
                           </svg>