<svg style="fill: #363636;width: 100px;" xmlns="http://www.w3.org/2000/svg" width="202" height="187" viewBox="0 0 202 187">
                              <path d="M199.49,182.33h-9.81V171.15c6.59-1.12,11.61-6.46,11.61-12.89a13.09,13.09,0,0,0-8-11.81,10.48,10.48,0,0,0,5.4-9c0-5.88-5.16-10.66-11.5-10.66s-11.5,4.78-11.5,10.66a10.48,10.48,0,0,0,5.4,9,13.1,13.1,0,0,0-8,11.81c0,6.43,5,11.77,11.62,12.89v11.18H164.85V67.85a2.44,2.44,0,0,0-2.53-2.33H144.57V2.46A2.44,2.44,0,0,0,142,.13H60.47A2.43,2.43,0,0,0,58,2.46V65.52H40.11a2.44,2.44,0,0,0-2.52,2.33V182.33H17.79V171.15c6.6-1.12,11.61-6.46,11.61-12.89a13.07,13.07,0,0,0-8-11.81,10.48,10.48,0,0,0,5.4-9c0-5.88-5.15-10.66-11.5-10.66S3.78,131.57,3.78,137.45a10.48,10.48,0,0,0,5.4,9,13.09,13.09,0,0,0-8,11.81c0,6.43,5,11.77,11.6,12.89v11.18H3A2.34,2.34,0,1,0,3,187H199.49a2.34,2.34,0,1,0,0-4.67m-12.33-50.87a6,6,0,1,1-6.46,6,6.25,6.25,0,0,1,6.46-6m-9.1,26.8c0-4.65,4.09-8.43,9.1-8.43s9.09,3.78,9.09,8.43-4.08,8.43-9.09,8.43-9.1-3.79-9.1-8.43M15.27,131.46a6,6,0,1,1,0,12,6,6,0,1,1,0-12m-9.08,26.8c0-4.65,4.07-8.43,9.08-8.43s9.09,3.78,9.09,8.43-4.07,8.43-9.09,8.43-9.08-3.79-9.08-8.43M63,4.79h76.54V65.51H63ZM42.63,70.19H159.8V182.33H135.88V153a2.44,2.44,0,0,0-2.53-2.34h-23.5a2.44,2.44,0,0,0-2.52,2.34v29.33H95.1V153a2.43,2.43,0,0,0-2.52-2.34H69.07A2.43,2.43,0,0,0,66.56,153v29.33H42.63Zm88.21,112.14H112.38v-27h18.46Zm-40.78,0H71.6v-27H90.06Z"></path>
                              <path d="M111.16,142h20.89a2.45,2.45,0,0,0,2.53-2.34v-18.9a2.45,2.45,0,0,0-2.53-2.35H111.16a2.45,2.45,0,0,0-2.53,2.35v18.9a2.45,2.45,0,0,0,2.53,2.34m2.52-18.91h15.85v14.23H113.68Z"></path>
                              <path d="M111.16,109.58h20.89a2.45,2.45,0,0,0,2.53-2.34V88.34A2.44,2.44,0,0,0,132.05,86H111.16a2.44,2.44,0,0,0-2.53,2.34v18.9a2.45,2.45,0,0,0,2.53,2.34m2.52-18.91h15.85V104.9H113.68Z"></path>
                              <path d="M70.38,142h20.9a2.44,2.44,0,0,0,2.52-2.34v-18.9a2.44,2.44,0,0,0-2.52-2.35H70.38a2.44,2.44,0,0,0-2.52,2.35v18.9A2.44,2.44,0,0,0,70.38,142m2.53-18.91H88.76v14.23H72.91Z"></path>
                              <path d="M70.38,109.58h20.9a2.44,2.44,0,0,0,2.52-2.34V88.34A2.43,2.43,0,0,0,91.28,86H70.38a2.43,2.43,0,0,0-2.52,2.34v18.9a2.44,2.44,0,0,0,2.52,2.34m2.53-18.91H88.76V104.9H72.91Z"></path>
                              <path d="M121.86,25.24h-10V16a2.44,2.44,0,0,0-2.51-2.34H93A2.45,2.45,0,0,0,90.46,16v9.29h-10a2.42,2.42,0,0,0-2.52,2.33V42.74a2.44,2.44,0,0,0,2.52,2.34h10v9.28A2.43,2.43,0,0,0,93,56.69h16.36a2.41,2.41,0,0,0,2.51-2.33V45.08h10a2.44,2.44,0,0,0,2.53-2.34V27.57a2.43,2.43,0,0,0-2.53-2.33M119.35,40.4h-10a2.45,2.45,0,0,0-2.53,2.34V52H95.5V42.74A2.44,2.44,0,0,0,93,40.4H83V29.91H93a2.43,2.43,0,0,0,2.51-2.34V18.29h11.32v9.28a2.44,2.44,0,0,0,2.53,2.34h10Z"></path>
                           </svg>